<mxfile host="app.diagrams.net" agent="Mozilla/5.0 (Windows NT 10.0; Win64; x64) AppleWebKit/537.36 (KHTML, like Gecko) Chrome/139.0.0.0 Safari/537.36" version="27.1.6">
  <diagram name="Page-1" id="I6Y-wbk0YoKE_FTUJRvd">
    <mxGraphModel dx="2637" dy="953" grid="1" gridSize="10" guides="1" tooltips="1" connect="1" arrows="1" fold="1" page="1" pageScale="1" pageWidth="850" pageHeight="1100" math="0" shadow="0">
      <root>
        <mxCell id="0" />
        <mxCell id="1" parent="0" />
        <mxCell id="Hzrix0PqcfKvZ3qZCdGW-19" style="edgeStyle=orthogonalEdgeStyle;rounded=0;orthogonalLoop=1;jettySize=auto;html=1;" edge="1" parent="1" source="Hzrix0PqcfKvZ3qZCdGW-1" target="Hzrix0PqcfKvZ3qZCdGW-18">
          <mxGeometry relative="1" as="geometry" />
        </mxCell>
        <mxCell id="Hzrix0PqcfKvZ3qZCdGW-1" value="WWW" style="ellipse;shape=cloud;whiteSpace=wrap;html=1;" vertex="1" parent="1">
          <mxGeometry x="160" y="200.00000000000003" width="120" height="80" as="geometry" />
        </mxCell>
        <mxCell id="Hzrix0PqcfKvZ3qZCdGW-9" style="edgeStyle=orthogonalEdgeStyle;rounded=0;orthogonalLoop=1;jettySize=auto;html=1;" edge="1" parent="1" source="Hzrix0PqcfKvZ3qZCdGW-6" target="Hzrix0PqcfKvZ3qZCdGW-1">
          <mxGeometry relative="1" as="geometry" />
        </mxCell>
        <mxCell id="Hzrix0PqcfKvZ3qZCdGW-15" value="Sends http requests&amp;nbsp;" style="edgeLabel;html=1;align=center;verticalAlign=middle;resizable=0;points=[];" vertex="1" connectable="0" parent="Hzrix0PqcfKvZ3qZCdGW-9">
          <mxGeometry x="-0.5907" y="1" relative="1" as="geometry">
            <mxPoint x="33" y="1" as="offset" />
          </mxGeometry>
        </mxCell>
        <mxCell id="Hzrix0PqcfKvZ3qZCdGW-6" value="" style="image;points=[];aspect=fixed;html=1;align=center;shadow=0;dashed=0;image=img/lib/allied_telesis/computer_and_terminals/IP_TV.svg;" vertex="1" parent="1">
          <mxGeometry x="40" y="130" width="49.199999999999996" height="50.4" as="geometry" />
        </mxCell>
        <mxCell id="Hzrix0PqcfKvZ3qZCdGW-8" value="" style="image;points=[];aspect=fixed;html=1;align=center;shadow=0;dashed=0;image=img/lib/allied_telesis/computer_and_terminals/IP_TV.svg;" vertex="1" parent="1">
          <mxGeometry x="40" y="310" width="49.199999999999996" height="50.4" as="geometry" />
        </mxCell>
        <mxCell id="Hzrix0PqcfKvZ3qZCdGW-11" style="edgeStyle=orthogonalEdgeStyle;rounded=0;orthogonalLoop=1;jettySize=auto;html=1;entryX=0.469;entryY=0.956;entryDx=0;entryDy=0;entryPerimeter=0;" edge="1" parent="1" source="Hzrix0PqcfKvZ3qZCdGW-8" target="Hzrix0PqcfKvZ3qZCdGW-1">
          <mxGeometry relative="1" as="geometry" />
        </mxCell>
        <mxCell id="Hzrix0PqcfKvZ3qZCdGW-14" style="edgeStyle=orthogonalEdgeStyle;rounded=0;orthogonalLoop=1;jettySize=auto;html=1;entryX=0.07;entryY=0.4;entryDx=0;entryDy=0;entryPerimeter=0;" edge="1" parent="1" source="Hzrix0PqcfKvZ3qZCdGW-13" target="Hzrix0PqcfKvZ3qZCdGW-1">
          <mxGeometry relative="1" as="geometry">
            <mxPoint x="180" y="235.20000000000005" as="targetPoint" />
          </mxGeometry>
        </mxCell>
        <mxCell id="Hzrix0PqcfKvZ3qZCdGW-13" value="" style="image;points=[];aspect=fixed;html=1;align=center;shadow=0;dashed=0;image=img/lib/allied_telesis/computer_and_terminals/IP_TV.svg;" vertex="1" parent="1">
          <mxGeometry x="40" y="206" width="49.199999999999996" height="50.4" as="geometry" />
        </mxCell>
        <mxCell id="Hzrix0PqcfKvZ3qZCdGW-21" style="edgeStyle=orthogonalEdgeStyle;rounded=0;orthogonalLoop=1;jettySize=auto;html=1;entryX=0.5;entryY=0;entryDx=0;entryDy=0;" edge="1" parent="1" source="Hzrix0PqcfKvZ3qZCdGW-18" target="Hzrix0PqcfKvZ3qZCdGW-23">
          <mxGeometry relative="1" as="geometry" />
        </mxCell>
        <mxCell id="Hzrix0PqcfKvZ3qZCdGW-18" value="API gateway" style="outlineConnect=0;dashed=0;verticalLabelPosition=bottom;verticalAlign=top;align=center;html=1;shape=mxgraph.aws3.api_gateway;fillColor=#D9A741;gradientColor=none;" vertex="1" parent="1">
          <mxGeometry x="330" y="193.5" width="76.5" height="93" as="geometry" />
        </mxCell>
        <mxCell id="Hzrix0PqcfKvZ3qZCdGW-20" value="" style="points=[];aspect=fixed;html=1;align=center;shadow=0;dashed=0;fillColor=#FF6A00;strokeColor=none;shape=mxgraph.alibaba_cloud.kafka;" vertex="1" parent="1">
          <mxGeometry x="528.83" y="500" width="82.35" height="61" as="geometry" />
        </mxCell>
        <mxCell id="Hzrix0PqcfKvZ3qZCdGW-22" value="Kafka" style="text;html=1;align=center;verticalAlign=middle;resizable=0;points=[];autosize=1;strokeColor=none;fillColor=none;" vertex="1" parent="1">
          <mxGeometry x="611.1800000000001" y="515.5" width="50" height="30" as="geometry" />
        </mxCell>
        <mxCell id="Hzrix0PqcfKvZ3qZCdGW-23" value="Ingestion Service" style="rounded=0;whiteSpace=wrap;html=1;" vertex="1" parent="1">
          <mxGeometry x="510" y="360.4" width="120" height="60" as="geometry" />
        </mxCell>
        <mxCell id="Hzrix0PqcfKvZ3qZCdGW-24" style="edgeStyle=orthogonalEdgeStyle;rounded=0;orthogonalLoop=1;jettySize=auto;html=1;entryX=0.499;entryY=0.106;entryDx=0;entryDy=0;entryPerimeter=0;" edge="1" parent="1" source="Hzrix0PqcfKvZ3qZCdGW-23" target="Hzrix0PqcfKvZ3qZCdGW-20">
          <mxGeometry relative="1" as="geometry" />
        </mxCell>
        <mxCell id="Hzrix0PqcfKvZ3qZCdGW-27" value="Push valid event to eventBus" style="edgeLabel;html=1;align=center;verticalAlign=middle;resizable=0;points=[];" vertex="1" connectable="0" parent="Hzrix0PqcfKvZ3qZCdGW-24">
          <mxGeometry x="-0.281" relative="1" as="geometry">
            <mxPoint y="-3" as="offset" />
          </mxGeometry>
        </mxCell>
        <mxCell id="Hzrix0PqcfKvZ3qZCdGW-25" value="" style="image;sketch=0;aspect=fixed;html=1;points=[];align=center;fontSize=12;image=img/lib/mscae/Cache_Redis_Product.svg;" vertex="1" parent="1">
          <mxGeometry x="770" y="369.4" width="50" height="42" as="geometry" />
        </mxCell>
        <mxCell id="Hzrix0PqcfKvZ3qZCdGW-37" style="edgeStyle=orthogonalEdgeStyle;rounded=0;orthogonalLoop=1;jettySize=auto;html=1;" edge="1" parent="1" source="Hzrix0PqcfKvZ3qZCdGW-28" target="Hzrix0PqcfKvZ3qZCdGW-36">
          <mxGeometry relative="1" as="geometry" />
        </mxCell>
        <mxCell id="Hzrix0PqcfKvZ3qZCdGW-38" value="Recent/&lt;br&gt;operational Queries" style="edgeLabel;html=1;align=center;verticalAlign=middle;resizable=0;points=[];" vertex="1" connectable="0" parent="Hzrix0PqcfKvZ3qZCdGW-37">
          <mxGeometry x="-0.1622" relative="1" as="geometry">
            <mxPoint as="offset" />
          </mxGeometry>
        </mxCell>
        <mxCell id="Hzrix0PqcfKvZ3qZCdGW-28" value="Enrichment Engine" style="rounded=0;whiteSpace=wrap;html=1;" vertex="1" parent="1">
          <mxGeometry x="510" y="640" width="120" height="60" as="geometry" />
        </mxCell>
        <mxCell id="Hzrix0PqcfKvZ3qZCdGW-29" style="edgeStyle=orthogonalEdgeStyle;rounded=0;orthogonalLoop=1;jettySize=auto;html=1;entryX=0.5;entryY=0;entryDx=0;entryDy=0;" edge="1" parent="1" source="Hzrix0PqcfKvZ3qZCdGW-20" target="Hzrix0PqcfKvZ3qZCdGW-28">
          <mxGeometry relative="1" as="geometry">
            <mxPoint x="570" y="650" as="targetPoint" />
          </mxGeometry>
        </mxCell>
        <mxCell id="Hzrix0PqcfKvZ3qZCdGW-33" value="" style="shape=mxgraph.signs.nature.snowflake;html=1;pointerEvents=1;fillColor=#000000;strokeColor=none;verticalLabelPosition=bottom;verticalAlign=top;align=center;" vertex="1" parent="1">
          <mxGeometry x="243" y="621" width="87" height="98" as="geometry" />
        </mxCell>
        <mxCell id="Hzrix0PqcfKvZ3qZCdGW-34" style="edgeStyle=orthogonalEdgeStyle;rounded=0;orthogonalLoop=1;jettySize=auto;html=1;exitX=0;exitY=0.5;exitDx=0;exitDy=0;entryX=0.929;entryY=0.492;entryDx=0;entryDy=0;entryPerimeter=0;" edge="1" parent="1" source="Hzrix0PqcfKvZ3qZCdGW-28" target="Hzrix0PqcfKvZ3qZCdGW-33">
          <mxGeometry relative="1" as="geometry" />
        </mxCell>
        <mxCell id="Hzrix0PqcfKvZ3qZCdGW-35" value="Long term analytics" style="edgeLabel;html=1;align=center;verticalAlign=middle;resizable=0;points=[];" vertex="1" connectable="0" parent="Hzrix0PqcfKvZ3qZCdGW-34">
          <mxGeometry x="0.2181" y="4" relative="1" as="geometry">
            <mxPoint x="10" y="-3" as="offset" />
          </mxGeometry>
        </mxCell>
        <mxCell id="Hzrix0PqcfKvZ3qZCdGW-36" value="PostgreSQL" style="image;aspect=fixed;html=1;points=[];align=center;fontSize=12;image=img/lib/azure2/databases/Azure_Database_PostgreSQL_Server.svg;" vertex="1" parent="1">
          <mxGeometry x="760" y="638" width="48" height="64" as="geometry" />
        </mxCell>
        <mxCell id="Hzrix0PqcfKvZ3qZCdGW-39" value="grafana" style="image;aspect=fixed;html=1;points=[];align=center;fontSize=12;image=img/lib/azure2/other/Grafana.svg;" vertex="1" parent="1">
          <mxGeometry x="60" y="644" width="68" height="52.800000000000004" as="geometry" />
        </mxCell>
        <mxCell id="Hzrix0PqcfKvZ3qZCdGW-40" style="edgeStyle=orthogonalEdgeStyle;rounded=0;orthogonalLoop=1;jettySize=auto;html=1;entryX=0.961;entryY=0.494;entryDx=0;entryDy=0;entryPerimeter=0;" edge="1" parent="1" source="Hzrix0PqcfKvZ3qZCdGW-33" target="Hzrix0PqcfKvZ3qZCdGW-39">
          <mxGeometry relative="1" as="geometry" />
        </mxCell>
        <mxCell id="Hzrix0PqcfKvZ3qZCdGW-41" value="Text" style="edgeLabel;html=1;align=center;verticalAlign=middle;resizable=0;points=[];" vertex="1" connectable="0" parent="Hzrix0PqcfKvZ3qZCdGW-40">
          <mxGeometry x="0.2453" y="-4" relative="1" as="geometry">
            <mxPoint x="11" y="4" as="offset" />
          </mxGeometry>
        </mxCell>
        <mxCell id="Hzrix0PqcfKvZ3qZCdGW-42" value="Text" style="edgeLabel;html=1;align=center;verticalAlign=middle;resizable=0;points=[];" vertex="1" connectable="0" parent="Hzrix0PqcfKvZ3qZCdGW-40">
          <mxGeometry x="-0.0234" y="-3" relative="1" as="geometry">
            <mxPoint x="-1" as="offset" />
          </mxGeometry>
        </mxCell>
        <mxCell id="Hzrix0PqcfKvZ3qZCdGW-43" value="&lt;span style=&quot;font-family: &amp;quot;Google Sans&amp;quot;, Arial, sans-serif; font-size: 14px; text-wrap-mode: wrap;&quot;&gt;Flutter code is on devices&lt;/span&gt;" style="text;html=1;align=center;verticalAlign=middle;resizable=0;points=[];autosize=1;" vertex="1" parent="1">
          <mxGeometry x="-10" y="70" width="180" height="30" as="geometry" />
        </mxCell>
        <mxCell id="Hzrix0PqcfKvZ3qZCdGW-48" value="" style="endArrow=classic;startArrow=classic;html=1;rounded=0;exitX=1;exitY=0.5;exitDx=0;exitDy=0;" edge="1" parent="1" source="Hzrix0PqcfKvZ3qZCdGW-23">
          <mxGeometry width="50" height="50" relative="1" as="geometry">
            <mxPoint x="720" y="440" as="sourcePoint" />
            <mxPoint x="770" y="390" as="targetPoint" />
          </mxGeometry>
        </mxCell>
        <mxCell id="Hzrix0PqcfKvZ3qZCdGW-49" value="&lt;h1&gt;device sends an event&lt;br&gt;===================&lt;/h1&gt;" style="text;whiteSpace=wrap;html=1;" vertex="1" parent="1">
          <mxGeometry x="-270" y="850" width="470" height="90" as="geometry" />
        </mxCell>
        <UserObject label="" plantUmlData="{&#xa;  &quot;data&quot;: &quot;@startuml\ntitle Device Retry with Idempotency (Duplicate Event Filtered)\n\nactor Device\nparticipant \&quot;API Gateway + WAF\&quot; as Gateway\nparticipant \&quot;Ingestion Service\&quot; as Ingestion\ndatabase \&quot;Redis (Idempotency Cache)\&quot; as Redis\nqueue \&quot;Kafka (Event Bus)\&quot; as Kafka\nparticipant \&quot;Enrichment Worker\&quot; as Worker\ndatabase \&quot;SQL Server (Ops)\&quot; as SQL\ndatabase \&quot;Snowflake (DW)\&quot; as Snowflake\n\n== First Attempt ==\nDevice -&gt; Gateway: POST /events (JWT, JSON batch)\nGateway -&gt; Ingestion: Forward request (validated)\n\nalt Cache MISS (new event)\n  Ingestion -&gt; Redis: GET key(deviceId+eventId+timestamp)\n  Redis --&gt; Ingestion: MISS\n  Ingestion -&gt; Redis: SET key(...), TTL=48h\n  Ingestion -&gt; Kafka: Publish event(s)\n  Kafka -&gt; Worker: Deliver event(s)\n  Worker -&gt; SQL: Upsert recent status / last-seen / error counts\n  Worker -&gt; Snowflake: Insert enriched event(s)\n  Ingestion --&gt; Gateway: 200 OK\n  Gateway --&gt; Device: 200 OK\nend\n\n== Device loses response and retries ==\nnote over Device: Network blip — device never sees 200 OK\n\nDevice -&gt; Gateway: POST /events (same payload)\nGateway -&gt; Ingestion: Forward request\n\nalt Cache HIT (duplicate event)\n  Ingestion -&gt; Redis: GET key(deviceId+eventId+timestamp)\n  Redis --&gt; Ingestion: HIT\n  Ingestion --&gt; Gateway: 200 OK (duplicate ignored)\\n(or 409/204 depending on policy)\n  Gateway --&gt; Device: Response\nelse Cache MISS again (rare timing issue)\n  Ingestion -&gt; Redis: MISS\n  Ingestion -&gt; Redis: SET key(...), TTL=48h\n  Ingestion -&gt; Kafka: Publish event(s)\nend\n\n== Optional: Kafka re-delivery duplicate ==\n... Worker restart / offset not committed ...\nKafka -&gt; Worker: Re-deliver same message\nWorker -&gt; Redis: GET key(deviceId+eventId+timestamp)\nRedis --&gt; Worker: HIT (skip)\nWorker --&gt; Kafka: Commit offset\n\n@enduml\n&quot;,&#xa;  &quot;format&quot;: &quot;svg&quot;&#xa;}" id="Hzrix0PqcfKvZ3qZCdGW-55">
          <mxCell style="shape=image;noLabel=1;verticalAlign=top;aspect=fixed;imageAspect=0;image=data:image/svg+xml,PHN2ZyB4bWxucz0iaHR0cDovL3d3dy53My5vcmcvMjAwMC9zdmciIHhtbG5zOnhsaW5rPSJodHRwOi8vd3d3LnczLm9yZy8xOTk5L3hsaW5rIiBjb250ZW50U3R5bGVUeXBlPSJ0ZXh0L2NzcyIgZGF0YS1kaWFncmFtLXR5cGU9IlNFUVVFTkNFIiBoZWlnaHQ9IjExNzJweCIgcHJlc2VydmVBc3BlY3RSYXRpbz0ibm9uZSIgc3R5bGU9IndpZHRoOjE3MTdweDtoZWlnaHQ6MTE3MnB4O2JhY2tncm91bmQ6I0ZGRkZGRjsiIHZlcnNpb249IjEuMSIgdmlld0JveD0iMCAwIDE3MTcgMTE3MiIgd2lkdGg9IjE3MTdweCIgem9vbUFuZFBhbj0ibWFnbmlmeSI+PHRpdGxlPkRldmljZSBSZXRyeSB3aXRoIElkZW1wb3RlbmN5IChEdXBsaWNhdGUgRXZlbnQgRmlsdGVyZWQpPC90aXRsZT48ZGVmcy8+PGc+PHRleHQgZmlsbD0iIzAwMDAwMCIgZm9udC1mYW1pbHk9InNhbnMtc2VyaWYiIGZvbnQtc2l6ZT0iMTQiIGZvbnQtd2VpZ2h0PSJib2xkIiBsZW5ndGhBZGp1c3Q9InNwYWNpbmciIHRleHRMZW5ndGg9IjM5MiIgeD0iNjU4Ljc1IiB5PSIyOC4yMzQ0Ij5EZXZpY2UgUmV0cnkgd2l0aCBJZGVtcG90ZW5jeSAoRHVwbGljYXRlIEV2ZW50IEZpbHRlcmVkKTwvdGV4dD48cmVjdCBmaWxsPSJub25lIiBoZWlnaHQ9IjI2Ny4xNDA2IiBzdHlsZT0ic3Ryb2tlOiMwMDAwMDA7c3Ryb2tlLXdpZHRoOjEuNTsiIHdpZHRoPSIxNTkyLjUiIHg9IjEwOCIgeT0iMjMwLjcxMDkiLz48cmVjdCBmaWxsPSJub25lIiBoZWlnaHQ9IjIzOSIgc3R5bGU9InN0cm9rZTojMDAwMDAwO3N0cm9rZS13aWR0aDoxLjU7IiB3aWR0aD0iOTg2IiB4PSIxMDgiIHk9IjY0My41MDc4Ii8+PGc+PHRpdGxlPkRldmljZTwvdGl0bGU+PHJlY3QgZmlsbD0iIzAwMDAwMCIgZmlsbC1vcGFjaXR5PSIwLjAwMDAwIiBoZWlnaHQ9IjgxNS40NTMxIiB3aWR0aD0iOCIgeD0iMTM4IiB5PSIxMTUuOTY4OCIvPjxsaW5lIHN0eWxlPSJzdHJva2U6IzE4MTgxODtzdHJva2Utd2lkdGg6MC41O3N0cm9rZS1kYXNoYXJyYXk6NS4wLDUuMDsiIHgxPSIxNDIiIHgyPSIxNDIiIHkxPSIxMTUuOTY4OCIgeTI9IjkzMS40MjE5Ii8+PC9nPjxsaW5lIHN0eWxlPSJzdHJva2U6I0E4MDAzNjtzdHJva2Utd2lkdGg6MTtzdHJva2UtZGFzaGFycmF5OjEuMCw0LjA7IiB4MT0iMTQyIiB4Mj0iMTQyIiB5MT0iOTMxLjQyMTkiIHkyPSI5NzEuMTk1MyIvPjxnPjx0aXRsZT5EZXZpY2U8L3RpdGxlPjxyZWN0IGZpbGw9IiMwMDAwMDAiIGZpbGwtb3BhY2l0eT0iMC4wMDAwMCIgaGVpZ2h0PSIxMjEuNjU2MyIgd2lkdGg9IjgiIHg9IjEzOCIgeT0iOTcxLjE5NTMiLz48bGluZSBzdHlsZT0ic3Ryb2tlOiMxODE4MTg7c3Ryb2tlLXdpZHRoOjAuNTtzdHJva2UtZGFzaGFycmF5OjUuMCw1LjA7IiB4MT0iMTQyIiB4Mj0iMTQyIiB5MT0iOTcxLjE5NTMiIHkyPSIxMDkyLjg1MTYiLz48L2c+PGc+PHRpdGxlPkFQSSBHYXRld2F5ICsgV0FGPC90aXRsZT48cmVjdCBmaWxsPSIjMDAwMDAwIiBmaWxsLW9wYWNpdHk9IjAuMDAwMDAiIGhlaWdodD0iODE1LjQ1MzEiIHdpZHRoPSI4IiB4PSIzNTciIHk9IjExNS45Njg4Ii8+PGxpbmUgc3R5bGU9InN0cm9rZTojMTgxODE4O3N0cm9rZS13aWR0aDowLjU7c3Ryb2tlLWRhc2hhcnJheTo1LjAsNS4wOyIgeDE9IjM2MC41IiB4Mj0iMzYwLjUiIHkxPSIxMTUuOTY4OCIgeTI9IjkzMS40MjE5Ii8+PC9nPjxsaW5lIHN0eWxlPSJzdHJva2U6I0E4MDAzNjtzdHJva2Utd2lkdGg6MTtzdHJva2UtZGFzaGFycmF5OjEuMCw0LjA7IiB4MT0iMzYwLjUiIHgyPSIzNjAuNSIgeTE9IjkzMS40MjE5IiB5Mj0iOTcxLjE5NTMiLz48Zz48dGl0bGU+QVBJIEdhdGV3YXkgKyBXQUY8L3RpdGxlPjxyZWN0IGZpbGw9IiMwMDAwMDAiIGZpbGwtb3BhY2l0eT0iMC4wMDAwMCIgaGVpZ2h0PSIxMjEuNjU2MyIgd2lkdGg9IjgiIHg9IjM1NyIgeT0iOTcxLjE5NTMiLz48bGluZSBzdHlsZT0ic3Ryb2tlOiMxODE4MTg7c3Ryb2tlLXdpZHRoOjAuNTtzdHJva2UtZGFzaGFycmF5OjUuMCw1LjA7IiB4MT0iMzYwLjUiIHgyPSIzNjAuNSIgeTE9Ijk3MS4xOTUzIiB5Mj0iMTA5Mi44NTE2Ii8+PC9nPjxnPjx0aXRsZT5Jbmdlc3Rpb24gU2VydmljZTwvdGl0bGU+PHJlY3QgZmlsbD0iIzAwMDAwMCIgZmlsbC1vcGFjaXR5PSIwLjAwMDAwIiBoZWlnaHQ9IjgxNS40NTMxIiB3aWR0aD0iOCIgeD0iNTg5IiB5PSIxMTUuOTY4OCIvPjxsaW5lIHN0eWxlPSJzdHJva2U6IzE4MTgxODtzdHJva2Utd2lkdGg6MC41O3N0cm9rZS1kYXNoYXJyYXk6NS4wLDUuMDsiIHgxPSI1OTIuNSIgeDI9IjU5Mi41IiB5MT0iMTE1Ljk2ODgiIHkyPSI5MzEuNDIxOSIvPjwvZz48bGluZSBzdHlsZT0ic3Ryb2tlOiNBODAwMzY7c3Ryb2tlLXdpZHRoOjE7c3Ryb2tlLWRhc2hhcnJheToxLjAsNC4wOyIgeDE9IjU5Mi41IiB4Mj0iNTkyLjUiIHkxPSI5MzEuNDIxOSIgeTI9Ijk3MS4xOTUzIi8+PGc+PHRpdGxlPkluZ2VzdGlvbiBTZXJ2aWNlPC90aXRsZT48cmVjdCBmaWxsPSIjMDAwMDAwIiBmaWxsLW9wYWNpdHk9IjAuMDAwMDAiIGhlaWdodD0iMTIxLjY1NjMiIHdpZHRoPSI4IiB4PSI1ODkiIHk9Ijk3MS4xOTUzIi8+PGxpbmUgc3R5bGU9InN0cm9rZTojMTgxODE4O3N0cm9rZS13aWR0aDowLjU7c3Ryb2tlLWRhc2hhcnJheTo1LjAsNS4wOyIgeDE9IjU5Mi41IiB4Mj0iNTkyLjUiIHkxPSI5NzEuMTk1MyIgeTI9IjEwOTIuODUxNiIvPjwvZz48Zz48dGl0bGU+UmVkaXMgKElkZW1wb3RlbmN5IENhY2hlKTwvdGl0bGU+PHJlY3QgZmlsbD0iIzAwMDAwMCIgZmlsbC1vcGFjaXR5PSIwLjAwMDAwIiBoZWlnaHQ9IjgxNS40NTMxIiB3aWR0aD0iOCIgeD0iODQwLjUiIHk9IjExNS45Njg4Ii8+PGxpbmUgc3R5bGU9InN0cm9rZTojMTgxODE4O3N0cm9rZS13aWR0aDowLjU7c3Ryb2tlLWRhc2hhcnJheTo1LjAsNS4wOyIgeDE9Ijg0NCIgeDI9Ijg0NCIgeTE9IjExNS45Njg4IiB5Mj0iOTMxLjQyMTkiLz48L2c+PGxpbmUgc3R5bGU9InN0cm9rZTojQTgwMDM2O3N0cm9rZS13aWR0aDoxO3N0cm9rZS1kYXNoYXJyYXk6MS4wLDQuMDsiIHgxPSI4NDQiIHgyPSI4NDQiIHkxPSI5MzEuNDIxOSIgeTI9Ijk3MS4xOTUzIi8+PGc+PHRpdGxlPlJlZGlzIChJZGVtcG90ZW5jeSBDYWNoZSk8L3RpdGxlPjxyZWN0IGZpbGw9IiMwMDAwMDAiIGZpbGwtb3BhY2l0eT0iMC4wMDAwMCIgaGVpZ2h0PSIxMjEuNjU2MyIgd2lkdGg9IjgiIHg9Ijg0MC41IiB5PSI5NzEuMTk1MyIvPjxsaW5lIHN0eWxlPSJzdHJva2U6IzE4MTgxODtzdHJva2Utd2lkdGg6MC41O3N0cm9rZS1kYXNoYXJyYXk6NS4wLDUuMDsiIHgxPSI4NDQiIHgyPSI4NDQiIHkxPSI5NzEuMTk1MyIgeTI9IjEwOTIuODUxNiIvPjwvZz48Zz48dGl0bGU+S2Fma2EgKEV2ZW50IEJ1cyk8L3RpdGxlPjxyZWN0IGZpbGw9IiMwMDAwMDAiIGZpbGwtb3BhY2l0eT0iMC4wMDAwMCIgaGVpZ2h0PSI4MTUuNDUzMSIgd2lkdGg9IjgiIHg9IjEwMTAuNSIgeT0iMTE1Ljk2ODgiLz48bGluZSBzdHlsZT0ic3Ryb2tlOiMxODE4MTg7c3Ryb2tlLXdpZHRoOjAuNTtzdHJva2UtZGFzaGFycmF5OjUuMCw1LjA7IiB4MT0iMTAxNCIgeDI9IjEwMTQiIHkxPSIxMTUuOTY4OCIgeTI9IjkzMS40MjE5Ii8+PC9nPjxsaW5lIHN0eWxlPSJzdHJva2U6I0E4MDAzNjtzdHJva2Utd2lkdGg6MTtzdHJva2UtZGFzaGFycmF5OjEuMCw0LjA7IiB4MT0iMTAxNCIgeDI9IjEwMTQiIHkxPSI5MzEuNDIxOSIgeTI9Ijk3MS4xOTUzIi8+PGc+PHRpdGxlPkthZmthIChFdmVudCBCdXMpPC90aXRsZT48cmVjdCBmaWxsPSIjMDAwMDAwIiBmaWxsLW9wYWNpdHk9IjAuMDAwMDAiIGhlaWdodD0iMTIxLjY1NjMiIHdpZHRoPSI4IiB4PSIxMDEwLjUiIHk9Ijk3MS4xOTUzIi8+PGxpbmUgc3R5bGU9InN0cm9rZTojMTgxODE4O3N0cm9rZS13aWR0aDowLjU7c3Ryb2tlLWRhc2hhcnJheTo1LjAsNS4wOyIgeDE9IjEwMTQiIHgyPSIxMDE0IiB5MT0iOTcxLjE5NTMiIHkyPSIxMDkyLjg1MTYiLz48L2c+PGc+PHRpdGxlPkVucmljaG1lbnQgV29ya2VyPC90aXRsZT48cmVjdCBmaWxsPSIjMDAwMDAwIiBmaWxsLW9wYWNpdHk9IjAuMDAwMDAiIGhlaWdodD0iODE1LjQ1MzEiIHdpZHRoPSI4IiB4PSIxMTg0IiB5PSIxMTUuOTY4OCIvPjxsaW5lIHN0eWxlPSJzdHJva2U6IzE4MTgxODtzdHJva2Utd2lkdGg6MC41O3N0cm9rZS1kYXNoYXJyYXk6NS4wLDUuMDsiIHgxPSIxMTg3LjUiIHgyPSIxMTg3LjUiIHkxPSIxMTUuOTY4OCIgeTI9IjkzMS40MjE5Ii8+PC9nPjxsaW5lIHN0eWxlPSJzdHJva2U6I0E4MDAzNjtzdHJva2Utd2lkdGg6MTtzdHJva2UtZGFzaGFycmF5OjEuMCw0LjA7IiB4MT0iMTE4Ny41IiB4Mj0iMTE4Ny41IiB5MT0iOTMxLjQyMTkiIHkyPSI5NzEuMTk1MyIvPjxnPjx0aXRsZT5FbnJpY2htZW50IFdvcmtlcjwvdGl0bGU+PHJlY3QgZmlsbD0iIzAwMDAwMCIgZmlsbC1vcGFjaXR5PSIwLjAwMDAwIiBoZWlnaHQ9IjEyMS42NTYzIiB3aWR0aD0iOCIgeD0iMTE4NCIgeT0iOTcxLjE5NTMiLz48bGluZSBzdHlsZT0ic3Ryb2tlOiMxODE4MTg7c3Ryb2tlLXdpZHRoOjAuNTtzdHJva2UtZGFzaGFycmF5OjUuMCw1LjA7IiB4MT0iMTE4Ny41IiB4Mj0iMTE4Ny41IiB5MT0iOTcxLjE5NTMiIHkyPSIxMDkyLjg1MTYiLz48L2c+PGc+PHRpdGxlPlNRTCBTZXJ2ZXIgKE9wcyk8L3RpdGxlPjxyZWN0IGZpbGw9IiMwMDAwMDAiIGZpbGwtb3BhY2l0eT0iMC4wMDAwMCIgaGVpZ2h0PSI4MTUuNDUzMSIgd2lkdGg9IjgiIHg9IjE1MTMuNSIgeT0iMTE1Ljk2ODgiLz48bGluZSBzdHlsZT0ic3Ryb2tlOiMxODE4MTg7c3Ryb2tlLXdpZHRoOjAuNTtzdHJva2UtZGFzaGFycmF5OjUuMCw1LjA7IiB4MT0iMTUxNy41IiB4Mj0iMTUxNy41IiB5MT0iMTE1Ljk2ODgiIHkyPSI5MzEuNDIxOSIvPjwvZz48bGluZSBzdHlsZT0ic3Ryb2tlOiNBODAwMzY7c3Ryb2tlLXdpZHRoOjE7c3Ryb2tlLWRhc2hhcnJheToxLjAsNC4wOyIgeDE9IjE1MTcuNSIgeDI9IjE1MTcuNSIgeTE9IjkzMS40MjE5IiB5Mj0iOTcxLjE5NTMiLz48Zz48dGl0bGU+U1FMIFNlcnZlciAoT3BzKTwvdGl0bGU+PHJlY3QgZmlsbD0iIzAwMDAwMCIgZmlsbC1vcGFjaXR5PSIwLjAwMDAwIiBoZWlnaHQ9IjEyMS42NTYzIiB3aWR0aD0iOCIgeD0iMTUxMy41IiB5PSI5NzEuMTk1MyIvPjxsaW5lIHN0eWxlPSJzdHJva2U6IzE4MTgxODtzdHJva2Utd2lkdGg6MC41O3N0cm9rZS1kYXNoYXJyYXk6NS4wLDUuMDsiIHgxPSIxNTE3LjUiIHgyPSIxNTE3LjUiIHkxPSI5NzEuMTk1MyIgeTI9IjEwOTIuODUxNiIvPjwvZz48Zz48dGl0bGU+U25vd2ZsYWtlIChEVyk8L3RpdGxlPjxyZWN0IGZpbGw9IiMwMDAwMDAiIGZpbGwtb3BhY2l0eT0iMC4wMDAwMCIgaGVpZ2h0PSI4MTUuNDUzMSIgd2lkdGg9IjgiIHg9IjE2MzQuNSIgeT0iMTE1Ljk2ODgiLz48bGluZSBzdHlsZT0ic3Ryb2tlOiMxODE4MTg7c3Ryb2tlLXdpZHRoOjAuNTtzdHJva2UtZGFzaGFycmF5OjUuMCw1LjA7IiB4MT0iMTYzOC41IiB4Mj0iMTYzOC41IiB5MT0iMTE1Ljk2ODgiIHkyPSI5MzEuNDIxOSIvPjwvZz48bGluZSBzdHlsZT0ic3Ryb2tlOiNBODAwMzY7c3Ryb2tlLXdpZHRoOjE7c3Ryb2tlLWRhc2hhcnJheToxLjAsNC4wOyIgeDE9IjE2MzguNSIgeDI9IjE2MzguNSIgeTE9IjkzMS40MjE5IiB5Mj0iOTcxLjE5NTMiLz48Zz48dGl0bGU+U25vd2ZsYWtlIChEVyk8L3RpdGxlPjxyZWN0IGZpbGw9IiMwMDAwMDAiIGZpbGwtb3BhY2l0eT0iMC4wMDAwMCIgaGVpZ2h0PSIxMjEuNjU2MyIgd2lkdGg9IjgiIHg9IjE2MzQuNSIgeT0iOTcxLjE5NTMiLz48bGluZSBzdHlsZT0ic3Ryb2tlOiMxODE4MTg7c3Ryb2tlLXdpZHRoOjAuNTtzdHJva2UtZGFzaGFycmF5OjUuMCw1LjA7IiB4MT0iMTYzOC41IiB4Mj0iMTYzOC41IiB5MT0iOTcxLjE5NTMiIHkyPSIxMDkyLjg1MTYiLz48L2c+PGcgY2xhc3M9InBhcnRpY2lwYW50IHBhcnRpY2lwYW50LWhlYWQiIGRhdGEtcGFydGljaXBhbnQ9IkRldmljZSI+PHRleHQgZmlsbD0iIzAwMDAwMCIgZm9udC1mYW1pbHk9InNhbnMtc2VyaWYiIGZvbnQtc2l6ZT0iMTQiIGxlbmd0aEFkanVzdD0ic3BhY2luZyIgdGV4dExlbmd0aD0iNDIiIHg9IjExOCIgeT0iMTE0LjIxODgiPkRldmljZTwvdGV4dD48ZWxsaXBzZSBjeD0iMTQyIiBjeT0iNDkuNDg0NCIgZmlsbD0iI0UyRTJGMCIgcng9IjgiIHJ5PSI4IiBzdHlsZT0ic3Ryb2tlOiMxODE4MTg7c3Ryb2tlLXdpZHRoOjAuNTsiLz48cGF0aCBkPSJNMTQyLDU3LjQ4NDQgTDE0Miw4NC40ODQ0IE0xMjksNjUuNDg0NCBMMTU1LDY1LjQ4NDQgTTE0Miw4NC40ODQ0IEwxMjksOTkuNDg0NCBNMTQyLDg0LjQ4NDQgTDE1NSw5OS40ODQ0IiBmaWxsPSJub25lIiBzdHlsZT0ic3Ryb2tlOiMxODE4MTg7c3Ryb2tlLXdpZHRoOjAuNTsiLz48L2c+PGcgY2xhc3M9InBhcnRpY2lwYW50IHBhcnRpY2lwYW50LXRhaWwiIGRhdGEtcGFydGljaXBhbnQ9IkRldmljZSI+PHRleHQgZmlsbD0iIzAwMDAwMCIgZm9udC1mYW1pbHk9InNhbnMtc2VyaWYiIGZvbnQtc2l6ZT0iMTQiIGxlbmd0aEFkanVzdD0ic3BhY2luZyIgdGV4dExlbmd0aD0iNDIiIHg9IjExOCIgeT0iMTEwNS4wODU5Ij5EZXZpY2U8L3RleHQ+PGVsbGlwc2UgY3g9IjE0MiIgY3k9IjExMTUuMzM1OSIgZmlsbD0iI0UyRTJGMCIgcng9IjgiIHJ5PSI4IiBzdHlsZT0ic3Ryb2tlOiMxODE4MTg7c3Ryb2tlLXdpZHRoOjAuNTsiLz48cGF0aCBkPSJNMTQyLDExMjMuMzM1OSBMMTQyLDExNTAuMzM1OSBNMTI5LDExMzEuMzM1OSBMMTU1LDExMzEuMzM1OSBNMTQyLDExNTAuMzM1OSBMMTI5LDExNjUuMzM1OSBNMTQyLDExNTAuMzM1OSBMMTU1LDExNjUuMzM1OSIgZmlsbD0ibm9uZSIgc3R5bGU9InN0cm9rZTojMTgxODE4O3N0cm9rZS13aWR0aDowLjU7Ii8+PC9nPjxnIGNsYXNzPSJwYXJ0aWNpcGFudCBwYXJ0aWNpcGFudC1oZWFkIiBkYXRhLXBhcnRpY2lwYW50PSJHYXRld2F5Ij48cmVjdCBmaWxsPSIjRTJFMkYwIiBoZWlnaHQ9IjI4Ljk4NDQiIHJ4PSIyLjUiIHJ5PSIyLjUiIHN0eWxlPSJzdHJva2U6IzE4MTgxODtzdHJva2Utd2lkdGg6MC41OyIgd2lkdGg9IjEzMyIgeD0iMjk0LjUiIHk9Ijg1Ljk4NDQiLz48dGV4dCBmaWxsPSIjMDAwMDAwIiBmb250LWZhbWlseT0ic2Fucy1zZXJpZiIgZm9udC1zaXplPSIxNCIgbGVuZ3RoQWRqdXN0PSJzcGFjaW5nIiB0ZXh0TGVuZ3RoPSIxMTkiIHg9IjMwMS41IiB5PSIxMDYuMjE4OCI+QVBJIEdhdGV3YXkgKyBXQUY8L3RleHQ+PC9nPjxnIGNsYXNzPSJwYXJ0aWNpcGFudCBwYXJ0aWNpcGFudC10YWlsIiBkYXRhLXBhcnRpY2lwYW50PSJHYXRld2F5Ij48cmVjdCBmaWxsPSIjRTJFMkYwIiBoZWlnaHQ9IjI4Ljk4NDQiIHJ4PSIyLjUiIHJ5PSIyLjUiIHN0eWxlPSJzdHJva2U6IzE4MTgxODtzdHJva2Utd2lkdGg6MC41OyIgd2lkdGg9IjEzMyIgeD0iMjk0LjUiIHk9IjEwOTEuODUxNiIvPjx0ZXh0IGZpbGw9IiMwMDAwMDAiIGZvbnQtZmFtaWx5PSJzYW5zLXNlcmlmIiBmb250LXNpemU9IjE0IiBsZW5ndGhBZGp1c3Q9InNwYWNpbmciIHRleHRMZW5ndGg9IjExOSIgeD0iMzAxLjUiIHk9IjExMTIuMDg1OSI+QVBJIEdhdGV3YXkgKyBXQUY8L3RleHQ+PC9nPjxnIGNsYXNzPSJwYXJ0aWNpcGFudCBwYXJ0aWNpcGFudC1oZWFkIiBkYXRhLXBhcnRpY2lwYW50PSJJbmdlc3Rpb24iPjxyZWN0IGZpbGw9IiNFMkUyRjAiIGhlaWdodD0iMjguOTg0NCIgcng9IjIuNSIgcnk9IjIuNSIgc3R5bGU9InN0cm9rZTojMTgxODE4O3N0cm9rZS13aWR0aDowLjU7IiB3aWR0aD0iMTMzIiB4PSI1MjYuNSIgeT0iODUuOTg0NCIvPjx0ZXh0IGZpbGw9IiMwMDAwMDAiIGZvbnQtZmFtaWx5PSJzYW5zLXNlcmlmIiBmb250LXNpemU9IjE0IiBsZW5ndGhBZGp1c3Q9InNwYWNpbmciIHRleHRMZW5ndGg9IjExOSIgeD0iNTMzLjUiIHk9IjEwNi4yMTg4Ij5Jbmdlc3Rpb24gU2VydmljZTwvdGV4dD48L2c+PGcgY2xhc3M9InBhcnRpY2lwYW50IHBhcnRpY2lwYW50LXRhaWwiIGRhdGEtcGFydGljaXBhbnQ9IkluZ2VzdGlvbiI+PHJlY3QgZmlsbD0iI0UyRTJGMCIgaGVpZ2h0PSIyOC45ODQ0IiByeD0iMi41IiByeT0iMi41IiBzdHlsZT0ic3Ryb2tlOiMxODE4MTg7c3Ryb2tlLXdpZHRoOjAuNTsiIHdpZHRoPSIxMzMiIHg9IjUyNi41IiB5PSIxMDkxLjg1MTYiLz48dGV4dCBmaWxsPSIjMDAwMDAwIiBmb250LWZhbWlseT0ic2Fucy1zZXJpZiIgZm9udC1zaXplPSIxNCIgbGVuZ3RoQWRqdXN0PSJzcGFjaW5nIiB0ZXh0TGVuZ3RoPSIxMTkiIHg9IjUzMy41IiB5PSIxMTEyLjA4NTkiPkluZ2VzdGlvbiBTZXJ2aWNlPC90ZXh0PjwvZz48ZyBjbGFzcz0icGFydGljaXBhbnQgcGFydGljaXBhbnQtaGVhZCIgZGF0YS1wYXJ0aWNpcGFudD0iUmVkaXMiPjx0ZXh0IGZpbGw9IiMwMDAwMDAiIGZvbnQtZmFtaWx5PSJzYW5zLXNlcmlmIiBmb250LXNpemU9IjE0IiBsZW5ndGhBZGp1c3Q9InNwYWNpbmciIHRleHRMZW5ndGg9IjE3NSIgeD0iNzU0IiB5PSIxMTQuMjE4OCI+UmVkaXMgKElkZW1wb3RlbmN5IENhY2hlKTwvdGV4dD48cGF0aCBkPSJNODI2LjUsNjQuOTg0NCBDODI2LjUsNTQuOTg0NCA4NDQuNSw1NC45ODQ0IDg0NC41LDU0Ljk4NDQgQzg0NC41LDU0Ljk4NDQgODYyLjUsNTQuOTg0NCA4NjIuNSw2NC45ODQ0IEw4NjIuNSw5MC45ODQ0IEM4NjIuNSwxMDAuOTg0NCA4NDQuNSwxMDAuOTg0NCA4NDQuNSwxMDAuOTg0NCBDODQ0LjUsMTAwLjk4NDQgODI2LjUsMTAwLjk4NDQgODI2LjUsOTAuOTg0NCBMODI2LjUsNjQuOTg0NCIgZmlsbD0iI0UyRTJGMCIgc3R5bGU9InN0cm9rZTojMTgxODE4O3N0cm9rZS13aWR0aDoxLjU7Ii8+PHBhdGggZD0iTTgyNi41LDY0Ljk4NDQgQzgyNi41LDc0Ljk4NDQgODQ0LjUsNzQuOTg0NCA4NDQuNSw3NC45ODQ0IEM4NDQuNSw3NC45ODQ0IDg2Mi41LDc0Ljk4NDQgODYyLjUsNjQuOTg0NCIgZmlsbD0ibm9uZSIgc3R5bGU9InN0cm9rZTojMTgxODE4O3N0cm9rZS13aWR0aDoxLjU7Ii8+PC9nPjxnIGNsYXNzPSJwYXJ0aWNpcGFudCBwYXJ0aWNpcGFudC10YWlsIiBkYXRhLXBhcnRpY2lwYW50PSJSZWRpcyI+PHRleHQgZmlsbD0iIzAwMDAwMCIgZm9udC1mYW1pbHk9InNhbnMtc2VyaWYiIGZvbnQtc2l6ZT0iMTQiIGxlbmd0aEFkanVzdD0ic3BhY2luZyIgdGV4dExlbmd0aD0iMTc1IiB4PSI3NTQiIHk9IjExMDUuMDg1OSI+UmVkaXMgKElkZW1wb3RlbmN5IENhY2hlKTwvdGV4dD48cGF0aCBkPSJNODI2LjUsMTExNi44MzU5IEM4MjYuNSwxMTA2LjgzNTkgODQ0LjUsMTEwNi44MzU5IDg0NC41LDExMDYuODM1OSBDODQ0LjUsMTEwNi44MzU5IDg2Mi41LDExMDYuODM1OSA4NjIuNSwxMTE2LjgzNTkgTDg2Mi41LDExNDIuODM1OSBDODYyLjUsMTE1Mi44MzU5IDg0NC41LDExNTIuODM1OSA4NDQuNSwxMTUyLjgzNTkgQzg0NC41LDExNTIuODM1OSA4MjYuNSwxMTUyLjgzNTkgODI2LjUsMTE0Mi44MzU5IEw4MjYuNSwxMTE2LjgzNTkiIGZpbGw9IiNFMkUyRjAiIHN0eWxlPSJzdHJva2U6IzE4MTgxODtzdHJva2Utd2lkdGg6MS41OyIvPjxwYXRoIGQ9Ik04MjYuNSwxMTE2LjgzNTkgQzgyNi41LDExMjYuODM1OSA4NDQuNSwxMTI2LjgzNTkgODQ0LjUsMTEyNi44MzU5IEM4NDQuNSwxMTI2LjgzNTkgODYyLjUsMTEyNi44MzU5IDg2Mi41LDExMTYuODM1OSIgZmlsbD0ibm9uZSIgc3R5bGU9InN0cm9rZTojMTgxODE4O3N0cm9rZS13aWR0aDoxLjU7Ii8+PC9nPjxnIGNsYXNzPSJwYXJ0aWNpcGFudCBwYXJ0aWNpcGFudC1oZWFkIiBkYXRhLXBhcnRpY2lwYW50PSJLYWZrYSI+PHBhdGggZD0iTTk1MCw5MC45ODQ0IEwxMDc5LDkwLjk4NDQgQzEwODQsOTAuOTg0NCAxMDg0LDEwMy40NzY2IDEwODQsMTAzLjQ3NjYgQzEwODQsMTAzLjQ3NjYgMTA4NCwxMTUuOTY4OCAxMDc5LDExNS45Njg4IEw5NTAsMTE1Ljk2ODggQzk0NSwxMTUuOTY4OCA5NDUsMTAzLjQ3NjYgOTQ1LDEwMy40NzY2IEM5NDUsMTAzLjQ3NjYgOTQ1LDkwLjk4NDQgOTUwLDkwLjk4NDQiIGZpbGw9IiNFMkUyRjAiIHN0eWxlPSJzdHJva2U6IzE4MTgxODtzdHJva2Utd2lkdGg6MC41OyIvPjxwYXRoIGQ9Ik0xMDc5LDkwLjk4NDQgQzEwNzQsOTAuOTg0NCAxMDc0LDEwMy40NzY2IDEwNzQsMTAzLjQ3NjYgQzEwNzQsMTE1Ljk2ODggMTA3OSwxMTUuOTY4OCAxMDc5LDExNS45Njg4IiBmaWxsPSJub25lIiBzdHlsZT0ic3Ryb2tlOiMxODE4MTg7c3Ryb2tlLXdpZHRoOjAuNTsiLz48dGV4dCBmaWxsPSIjMDAwMDAwIiBmb250LWZhbWlseT0ic2Fucy1zZXJpZiIgZm9udC1zaXplPSIxNCIgbGVuZ3RoQWRqdXN0PSJzcGFjaW5nIiB0ZXh0TGVuZ3RoPSIxMTkiIHg9Ijk1MCIgeT0iMTA5LjIxODgiPkthZmthIChFdmVudCBCdXMpPC90ZXh0PjwvZz48ZyBjbGFzcz0icGFydGljaXBhbnQgcGFydGljaXBhbnQtdGFpbCIgZGF0YS1wYXJ0aWNpcGFudD0iS2Fma2EiPjxwYXRoIGQ9Ik05NTAsMTA5MS44NTE2IEwxMDc5LDEwOTEuODUxNiBDMTA4NCwxMDkxLjg1MTYgMTA4NCwxMTA0LjM0MzggMTA4NCwxMTA0LjM0MzggQzEwODQsMTEwNC4zNDM4IDEwODQsMTExNi44MzU5IDEwNzksMTExNi44MzU5IEw5NTAsMTExNi44MzU5IEM5NDUsMTExNi44MzU5IDk0NSwxMTA0LjM0MzggOTQ1LDExMDQuMzQzOCBDOTQ1LDExMDQuMzQzOCA5NDUsMTA5MS44NTE2IDk1MCwxMDkxLjg1MTYiIGZpbGw9IiNFMkUyRjAiIHN0eWxlPSJzdHJva2U6IzE4MTgxODtzdHJva2Utd2lkdGg6MC41OyIvPjxwYXRoIGQ9Ik0xMDc5LDEwOTEuODUxNiBDMTA3NCwxMDkxLjg1MTYgMTA3NCwxMTA0LjM0MzggMTA3NCwxMTA0LjM0MzggQzEwNzQsMTExNi44MzU5IDEwNzksMTExNi44MzU5IDEwNzksMTExNi44MzU5IiBmaWxsPSJub25lIiBzdHlsZT0ic3Ryb2tlOiMxODE4MTg7c3Ryb2tlLXdpZHRoOjAuNTsiLz48dGV4dCBmaWxsPSIjMDAwMDAwIiBmb250LWZhbWlseT0ic2Fucy1zZXJpZiIgZm9udC1zaXplPSIxNCIgbGVuZ3RoQWRqdXN0PSJzcGFjaW5nIiB0ZXh0TGVuZ3RoPSIxMTkiIHg9Ijk1MCIgeT0iMTExMC4wODU5Ij5LYWZrYSAoRXZlbnQgQnVzKTwvdGV4dD48L2c+PGcgY2xhc3M9InBhcnRpY2lwYW50IHBhcnRpY2lwYW50LWhlYWQiIGRhdGEtcGFydGljaXBhbnQ9IldvcmtlciI+PHJlY3QgZmlsbD0iI0UyRTJGMCIgaGVpZ2h0PSIyOC45ODQ0IiByeD0iMi41IiByeT0iMi41IiBzdHlsZT0ic3Ryb2tlOiMxODE4MTg7c3Ryb2tlLXdpZHRoOjAuNTsiIHdpZHRoPSIxMzMiIHg9IjExMjEuNSIgeT0iODUuOTg0NCIvPjx0ZXh0IGZpbGw9IiMwMDAwMDAiIGZvbnQtZmFtaWx5PSJzYW5zLXNlcmlmIiBmb250LXNpemU9IjE0IiBsZW5ndGhBZGp1c3Q9InNwYWNpbmciIHRleHRMZW5ndGg9IjExOSIgeD0iMTEyOC41IiB5PSIxMDYuMjE4OCI+RW5yaWNobWVudCBXb3JrZXI8L3RleHQ+PC9nPjxnIGNsYXNzPSJwYXJ0aWNpcGFudCBwYXJ0aWNpcGFudC10YWlsIiBkYXRhLXBhcnRpY2lwYW50PSJXb3JrZXIiPjxyZWN0IGZpbGw9IiNFMkUyRjAiIGhlaWdodD0iMjguOTg0NCIgcng9IjIuNSIgcnk9IjIuNSIgc3R5bGU9InN0cm9rZTojMTgxODE4O3N0cm9rZS13aWR0aDowLjU7IiB3aWR0aD0iMTMzIiB4PSIxMTIxLjUiIHk9IjEwOTEuODUxNiIvPjx0ZXh0IGZpbGw9IiMwMDAwMDAiIGZvbnQtZmFtaWx5PSJzYW5zLXNlcmlmIiBmb250LXNpemU9IjE0IiBsZW5ndGhBZGp1c3Q9InNwYWNpbmciIHRleHRMZW5ndGg9IjExOSIgeD0iMTEyOC41IiB5PSIxMTEyLjA4NTkiPkVucmljaG1lbnQgV29ya2VyPC90ZXh0PjwvZz48ZyBjbGFzcz0icGFydGljaXBhbnQgcGFydGljaXBhbnQtaGVhZCIgZGF0YS1wYXJ0aWNpcGFudD0iU1FMIj48dGV4dCBmaWxsPSIjMDAwMDAwIiBmb250LWZhbWlseT0ic2Fucy1zZXJpZiIgZm9udC1zaXplPSIxNCIgbGVuZ3RoQWRqdXN0PSJzcGFjaW5nIiB0ZXh0TGVuZ3RoPSIxMTIiIHg9IjE0NTguNSIgeT0iMTE0LjIxODgiPlNRTCBTZXJ2ZXIgKE9wcyk8L3RleHQ+PHBhdGggZD0iTTE0OTkuNSw2NC45ODQ0IEMxNDk5LjUsNTQuOTg0NCAxNTE3LjUsNTQuOTg0NCAxNTE3LjUsNTQuOTg0NCBDMTUxNy41LDU0Ljk4NDQgMTUzNS41LDU0Ljk4NDQgMTUzNS41LDY0Ljk4NDQgTDE1MzUuNSw5MC45ODQ0IEMxNTM1LjUsMTAwLjk4NDQgMTUxNy41LDEwMC45ODQ0IDE1MTcuNSwxMDAuOTg0NCBDMTUxNy41LDEwMC45ODQ0IDE0OTkuNSwxMDAuOTg0NCAxNDk5LjUsOTAuOTg0NCBMMTQ5OS41LDY0Ljk4NDQiIGZpbGw9IiNFMkUyRjAiIHN0eWxlPSJzdHJva2U6IzE4MTgxODtzdHJva2Utd2lkdGg6MS41OyIvPjxwYXRoIGQ9Ik0xNDk5LjUsNjQuOTg0NCBDMTQ5OS41LDc0Ljk4NDQgMTUxNy41LDc0Ljk4NDQgMTUxNy41LDc0Ljk4NDQgQzE1MTcuNSw3NC45ODQ0IDE1MzUuNSw3NC45ODQ0IDE1MzUuNSw2NC45ODQ0IiBmaWxsPSJub25lIiBzdHlsZT0ic3Ryb2tlOiMxODE4MTg7c3Ryb2tlLXdpZHRoOjEuNTsiLz48L2c+PGcgY2xhc3M9InBhcnRpY2lwYW50IHBhcnRpY2lwYW50LXRhaWwiIGRhdGEtcGFydGljaXBhbnQ9IlNRTCI+PHRleHQgZmlsbD0iIzAwMDAwMCIgZm9udC1mYW1pbHk9InNhbnMtc2VyaWYiIGZvbnQtc2l6ZT0iMTQiIGxlbmd0aEFkanVzdD0ic3BhY2luZyIgdGV4dExlbmd0aD0iMTEyIiB4PSIxNDU4LjUiIHk9IjExMDUuMDg1OSI+U1FMIFNlcnZlciAoT3BzKTwvdGV4dD48cGF0aCBkPSJNMTQ5OS41LDExMTYuODM1OSBDMTQ5OS41LDExMDYuODM1OSAxNTE3LjUsMTEwNi44MzU5IDE1MTcuNSwxMTA2LjgzNTkgQzE1MTcuNSwxMTA2LjgzNTkgMTUzNS41LDExMDYuODM1OSAxNTM1LjUsMTExNi44MzU5IEwxNTM1LjUsMTE0Mi44MzU5IEMxNTM1LjUsMTE1Mi44MzU5IDE1MTcuNSwxMTUyLjgzNTkgMTUxNy41LDExNTIuODM1OSBDMTUxNy41LDExNTIuODM1OSAxNDk5LjUsMTE1Mi44MzU5IDE0OTkuNSwxMTQyLjgzNTkgTDE0OTkuNSwxMTE2LjgzNTkiIGZpbGw9IiNFMkUyRjAiIHN0eWxlPSJzdHJva2U6IzE4MTgxODtzdHJva2Utd2lkdGg6MS41OyIvPjxwYXRoIGQ9Ik0xNDk5LjUsMTExNi44MzU5IEMxNDk5LjUsMTEyNi44MzU5IDE1MTcuNSwxMTI2LjgzNTkgMTUxNy41LDExMjYuODM1OSBDMTUxNy41LDExMjYuODM1OSAxNTM1LjUsMTEyNi44MzU5IDE1MzUuNSwxMTE2LjgzNTkiIGZpbGw9Im5vbmUiIHN0eWxlPSJzdHJva2U6IzE4MTgxODtzdHJva2Utd2lkdGg6MS41OyIvPjwvZz48ZyBjbGFzcz0icGFydGljaXBhbnQgcGFydGljaXBhbnQtaGVhZCIgZGF0YS1wYXJ0aWNpcGFudD0iU25vd2ZsYWtlIj48dGV4dCBmaWxsPSIjMDAwMDAwIiBmb250LWZhbWlseT0ic2Fucy1zZXJpZiIgZm9udC1zaXplPSIxNCIgbGVuZ3RoQWRqdXN0PSJzcGFjaW5nIiB0ZXh0TGVuZ3RoPSI5OCIgeD0iMTU4Ni41IiB5PSIxMTQuMjE4OCI+U25vd2ZsYWtlIChEVyk8L3RleHQ+PHBhdGggZD0iTTE2MjAuNSw2NC45ODQ0IEMxNjIwLjUsNTQuOTg0NCAxNjM4LjUsNTQuOTg0NCAxNjM4LjUsNTQuOTg0NCBDMTYzOC41LDU0Ljk4NDQgMTY1Ni41LDU0Ljk4NDQgMTY1Ni41LDY0Ljk4NDQgTDE2NTYuNSw5MC45ODQ0IEMxNjU2LjUsMTAwLjk4NDQgMTYzOC41LDEwMC45ODQ0IDE2MzguNSwxMDAuOTg0NCBDMTYzOC41LDEwMC45ODQ0IDE2MjAuNSwxMDAuOTg0NCAxNjIwLjUsOTAuOTg0NCBMMTYyMC41LDY0Ljk4NDQiIGZpbGw9IiNFMkUyRjAiIHN0eWxlPSJzdHJva2U6IzE4MTgxODtzdHJva2Utd2lkdGg6MS41OyIvPjxwYXRoIGQ9Ik0xNjIwLjUsNjQuOTg0NCBDMTYyMC41LDc0Ljk4NDQgMTYzOC41LDc0Ljk4NDQgMTYzOC41LDc0Ljk4NDQgQzE2MzguNSw3NC45ODQ0IDE2NTYuNSw3NC45ODQ0IDE2NTYuNSw2NC45ODQ0IiBmaWxsPSJub25lIiBzdHlsZT0ic3Ryb2tlOiMxODE4MTg7c3Ryb2tlLXdpZHRoOjEuNTsiLz48L2c+PGcgY2xhc3M9InBhcnRpY2lwYW50IHBhcnRpY2lwYW50LXRhaWwiIGRhdGEtcGFydGljaXBhbnQ9IlNub3dmbGFrZSI+PHRleHQgZmlsbD0iIzAwMDAwMCIgZm9udC1mYW1pbHk9InNhbnMtc2VyaWYiIGZvbnQtc2l6ZT0iMTQiIGxlbmd0aEFkanVzdD0ic3BhY2luZyIgdGV4dExlbmd0aD0iOTgiIHg9IjE1ODYuNSIgeT0iMTEwNS4wODU5Ij5Tbm93Zmxha2UgKERXKTwvdGV4dD48cGF0aCBkPSJNMTYyMC41LDExMTYuODM1OSBDMTYyMC41LDExMDYuODM1OSAxNjM4LjUsMTEwNi44MzU5IDE2MzguNSwxMTA2LjgzNTkgQzE2MzguNSwxMTA2LjgzNTkgMTY1Ni41LDExMDYuODM1OSAxNjU2LjUsMTExNi44MzU5IEwxNjU2LjUsMTE0Mi44MzU5IEMxNjU2LjUsMTE1Mi44MzU5IDE2MzguNSwxMTUyLjgzNTkgMTYzOC41LDExNTIuODM1OSBDMTYzOC41LDExNTIuODM1OSAxNjIwLjUsMTE1Mi44MzU5IDE2MjAuNSwxMTQyLjgzNTkgTDE2MjAuNSwxMTE2LjgzNTkiIGZpbGw9IiNFMkUyRjAiIHN0eWxlPSJzdHJva2U6IzE4MTgxODtzdHJva2Utd2lkdGg6MS41OyIvPjxwYXRoIGQ9Ik0xNjIwLjUsMTExNi44MzU5IEMxNjIwLjUsMTEyNi44MzU5IDE2MzguNSwxMTI2LjgzNTkgMTYzOC41LDExMjYuODM1OSBDMTYzOC41LDExMjYuODM1OSAxNjU2LjUsMTEyNi44MzU5IDE2NTYuNSwxMTE2LjgzNTkiIGZpbGw9Im5vbmUiIHN0eWxlPSJzdHJva2U6IzE4MTgxODtzdHJva2Utd2lkdGg6MS41OyIvPjwvZz48cmVjdCBmaWxsPSIjRUVFRUVFIiBoZWlnaHQ9IjMiIHN0eWxlPSJzdHJva2U6I0VFRUVFRTtzdHJva2Utd2lkdGg6MTsiIHdpZHRoPSIxNzEwLjUiIHg9IjAiIHk9IjE0NS45MjU4Ii8+PGxpbmUgc3R5bGU9InN0cm9rZTojMDAwMDAwO3N0cm9rZS13aWR0aDoxOyIgeDE9IjAiIHgyPSIxNzEwLjUiIHkxPSIxNDUuOTI1OCIgeTI9IjE0NS45MjU4Ii8+PGxpbmUgc3R5bGU9InN0cm9rZTojMDAwMDAwO3N0cm9rZS13aWR0aDoxOyIgeDE9IjAiIHgyPSIxNzEwLjUiIHkxPSIxNDguOTI1OCIgeTI9IjE0OC45MjU4Ii8+PHJlY3QgZmlsbD0iI0VFRUVFRSIgaGVpZ2h0PSIyMS45MTQxIiBzdHlsZT0ic3Ryb2tlOiMwMDAwMDA7c3Ryb2tlLXdpZHRoOjI7IiB3aWR0aD0iMTA1IiB4PSI4MDIuNzUiIHk9IjEzNS45Njg4Ii8+PHRleHQgZmlsbD0iIzAwMDAwMCIgZm9udC1mYW1pbHk9InNhbnMtc2VyaWYiIGZvbnQtc2l6ZT0iMTMiIGZvbnQtd2VpZ2h0PSJib2xkIiBsZW5ndGhBZGp1c3Q9InNwYWNpbmciIHRleHRMZW5ndGg9Ijg0LjUiIHg9IjgwOC43NSIgeT0iMTUyLjI1NzgiPkZpcnN0IEF0dGVtcHQ8L3RleHQ+PGcgY2xhc3M9Im1lc3NhZ2UiIGRhdGEtcGFydGljaXBhbnQtMT0iRGV2aWNlIiBkYXRhLXBhcnRpY2lwYW50LTI9IkdhdGV3YXkiPjxwb2x5Z29uIGZpbGw9IiMxODE4MTgiIHBvaW50cz0iMzQ5LDE4My43OTY5LDM1OSwxODcuNzk2OSwzNDksMTkxLjc5NjksMzUzLDE4Ny43OTY5IiBzdHlsZT0ic3Ryb2tlOiMxODE4MTg7c3Ryb2tlLXdpZHRoOjE7Ii8+PGxpbmUgc3R5bGU9InN0cm9rZTojMTgxODE4O3N0cm9rZS13aWR0aDoxOyIgeDE9IjE0MiIgeDI9IjM1NSIgeTE9IjE4Ny43OTY5IiB5Mj0iMTg3Ljc5NjkiLz48dGV4dCBmaWxsPSIjMDAwMDAwIiBmb250LWZhbWlseT0ic2Fucy1zZXJpZiIgZm9udC1zaXplPSIxMyIgbGVuZ3RoQWRqdXN0PSJzcGFjaW5nIiB0ZXh0TGVuZ3RoPSIxOTUiIHg9IjE0OSIgeT0iMTg0LjE3MTkiPlBPU1QgL2V2ZW50cyAoSldULCBKU09OIGJhdGNoKTwvdGV4dD48L2c+PGcgY2xhc3M9Im1lc3NhZ2UiIGRhdGEtcGFydGljaXBhbnQtMT0iR2F0ZXdheSIgZGF0YS1wYXJ0aWNpcGFudC0yPSJJbmdlc3Rpb24iPjxwb2x5Z29uIGZpbGw9IiMxODE4MTgiIHBvaW50cz0iNTgxLDIxMS43MTA5LDU5MSwyMTUuNzEwOSw1ODEsMjE5LjcxMDksNTg1LDIxNS43MTA5IiBzdHlsZT0ic3Ryb2tlOiMxODE4MTg7c3Ryb2tlLXdpZHRoOjE7Ii8+PGxpbmUgc3R5bGU9InN0cm9rZTojMTgxODE4O3N0cm9rZS13aWR0aDoxOyIgeDE9IjM2MSIgeDI9IjU4NyIgeTE9IjIxNS43MTA5IiB5Mj0iMjE1LjcxMDkiLz48dGV4dCBmaWxsPSIjMDAwMDAwIiBmb250LWZhbWlseT0ic2Fucy1zZXJpZiIgZm9udC1zaXplPSIxMyIgbGVuZ3RoQWRqdXN0PSJzcGFjaW5nIiB0ZXh0TGVuZ3RoPSIxNzUuNSIgeD0iMzY4IiB5PSIyMTIuMDg1OSI+Rm9yd2FyZCByZXF1ZXN0ICh2YWxpZGF0ZWQpPC90ZXh0PjwvZz48cGF0aCBkPSJNMTA4LDIzMC43MTA5IEwxNzIuNSwyMzAuNzEwOSBMMTcyLjUsMjM2LjYyNSBMMTYyLjUsMjQ2LjYyNSBMMTA4LDI0Ni42MjUgTDEwOCwyMzAuNzEwOSIgZmlsbD0iI0VFRUVFRSIgc3R5bGU9InN0cm9rZTojMDAwMDAwO3N0cm9rZS13aWR0aDoxLjU7Ii8+PHJlY3QgZmlsbD0ibm9uZSIgaGVpZ2h0PSIyNjcuMTQwNiIgc3R5bGU9InN0cm9rZTojMDAwMDAwO3N0cm9rZS13aWR0aDoxLjU7IiB3aWR0aD0iMTU5Mi41IiB4PSIxMDgiIHk9IjIzMC43MTA5Ii8+PHRleHQgZmlsbD0iIzAwMDAwMCIgZm9udC1mYW1pbHk9InNhbnMtc2VyaWYiIGZvbnQtc2l6ZT0iMTMiIGZvbnQtd2VpZ2h0PSJib2xkIiBsZW5ndGhBZGp1c3Q9InNwYWNpbmciIHRleHRMZW5ndGg9IjE5LjUiIHg9IjEyMyIgeT0iMjQ0Ij5hbHQ8L3RleHQ+PHRleHQgZmlsbD0iIzAwMDAwMCIgZm9udC1mYW1pbHk9InNhbnMtc2VyaWYiIGZvbnQtc2l6ZT0iMTEiIGZvbnQtd2VpZ2h0PSJib2xkIiBsZW5ndGhBZGp1c3Q9InNwYWNpbmciIHRleHRMZW5ndGg9IjEzMiIgeD0iMTg3LjUiIHk9IjI0My4xMDk0Ij5bQ2FjaGUgTUlTUyAobmV3IGV2ZW50KV08L3RleHQ+PGcgY2xhc3M9Im1lc3NhZ2UiIGRhdGEtcGFydGljaXBhbnQtMT0iSW5nZXN0aW9uIiBkYXRhLXBhcnRpY2lwYW50LTI9IlJlZGlzIj48cG9seWdvbiBmaWxsPSIjMTgxODE4IiBwb2ludHM9IjgzMi41LDI2Mi41MzkxLDg0Mi41LDI2Ni41MzkxLDgzMi41LDI3MC41MzkxLDgzNi41LDI2Ni41MzkxIiBzdHlsZT0ic3Ryb2tlOiMxODE4MTg7c3Ryb2tlLXdpZHRoOjE7Ii8+PGxpbmUgc3R5bGU9InN0cm9rZTojMTgxODE4O3N0cm9rZS13aWR0aDoxOyIgeDE9IjU5MyIgeDI9IjgzOC41IiB5MT0iMjY2LjUzOTEiIHkyPSIyNjYuNTM5MSIvPjx0ZXh0IGZpbGw9IiMwMDAwMDAiIGZvbnQtZmFtaWx5PSJzYW5zLXNlcmlmIiBmb250LXNpemU9IjEzIiBsZW5ndGhBZGp1c3Q9InNwYWNpbmciIHRleHRMZW5ndGg9IjIyNy41IiB4PSI2MDAiIHk9IjI2Mi45MTQxIj5HRVQga2V5KGRldmljZUlkK2V2ZW50SWQrdGltZXN0YW1wKTwvdGV4dD48L2c+PGcgY2xhc3M9Im1lc3NhZ2UiIGRhdGEtcGFydGljaXBhbnQtMT0iUmVkaXMiIGRhdGEtcGFydGljaXBhbnQtMj0iSW5nZXN0aW9uIj48cG9seWdvbiBmaWxsPSIjMTgxODE4IiBwb2ludHM9IjYwNCwyOTAuNDUzMSw1OTQsMjk0LjQ1MzEsNjA0LDI5OC40NTMxLDYwMCwyOTQuNDUzMSIgc3R5bGU9InN0cm9rZTojMTgxODE4O3N0cm9rZS13aWR0aDoxOyIvPjxsaW5lIHN0eWxlPSJzdHJva2U6IzE4MTgxODtzdHJva2Utd2lkdGg6MTtzdHJva2UtZGFzaGFycmF5OjIuMCwyLjA7IiB4MT0iNTk4IiB4Mj0iODQzLjUiIHkxPSIyOTQuNDUzMSIgeTI9IjI5NC40NTMxIi8+PHRleHQgZmlsbD0iIzAwMDAwMCIgZm9udC1mYW1pbHk9InNhbnMtc2VyaWYiIGZvbnQtc2l6ZT0iMTMiIGxlbmd0aEFkanVzdD0ic3BhY2luZyIgdGV4dExlbmd0aD0iMjYiIHg9IjYxMCIgeT0iMjkwLjgyODEiPk1JU1M8L3RleHQ+PC9nPjxnIGNsYXNzPSJtZXNzYWdlIiBkYXRhLXBhcnRpY2lwYW50LTE9IkluZ2VzdGlvbiIgZGF0YS1wYXJ0aWNpcGFudC0yPSJSZWRpcyI+PHBvbHlnb24gZmlsbD0iIzE4MTgxOCIgcG9pbnRzPSI4MzIuNSwzMTguMzY3Miw4NDIuNSwzMjIuMzY3Miw4MzIuNSwzMjYuMzY3Miw4MzYuNSwzMjIuMzY3MiIgc3R5bGU9InN0cm9rZTojMTgxODE4O3N0cm9rZS13aWR0aDoxOyIvPjxsaW5lIHN0eWxlPSJzdHJva2U6IzE4MTgxODtzdHJva2Utd2lkdGg6MTsiIHgxPSI1OTMiIHgyPSI4MzguNSIgeTE9IjMyMi4zNjcyIiB5Mj0iMzIyLjM2NzIiLz48dGV4dCBmaWxsPSIjMDAwMDAwIiBmb250LWZhbWlseT0ic2Fucy1zZXJpZiIgZm9udC1zaXplPSIxMyIgbGVuZ3RoQWRqdXN0PSJzcGFjaW5nIiB0ZXh0TGVuZ3RoPSIxMzYuNSIgeD0iNjAwIiB5PSIzMTguNzQyMiI+U0VUIGtleSguLi4pLCBUVEw9NDhoPC90ZXh0PjwvZz48ZyBjbGFzcz0ibWVzc2FnZSIgZGF0YS1wYXJ0aWNpcGFudC0xPSJJbmdlc3Rpb24iIGRhdGEtcGFydGljaXBhbnQtMj0iS2Fma2EiPjxwb2x5Z29uIGZpbGw9IiMxODE4MTgiIHBvaW50cz0iMTAwMi41LDM0Ni4yODEzLDEwMTIuNSwzNTAuMjgxMywxMDAyLjUsMzU0LjI4MTMsMTAwNi41LDM1MC4yODEzIiBzdHlsZT0ic3Ryb2tlOiMxODE4MTg7c3Ryb2tlLXdpZHRoOjE7Ii8+PGxpbmUgc3R5bGU9InN0cm9rZTojMTgxODE4O3N0cm9rZS13aWR0aDoxOyIgeDE9IjU5MyIgeDI9IjEwMDguNSIgeTE9IjM1MC4yODEzIiB5Mj0iMzUwLjI4MTMiLz48dGV4dCBmaWxsPSIjMDAwMDAwIiBmb250LWZhbWlseT0ic2Fucy1zZXJpZiIgZm9udC1zaXplPSIxMyIgbGVuZ3RoQWRqdXN0PSJzcGFjaW5nIiB0ZXh0TGVuZ3RoPSIxMDQiIHg9IjYwMCIgeT0iMzQ2LjY1NjMiPlB1Ymxpc2ggZXZlbnQocyk8L3RleHQ+PC9nPjxnIGNsYXNzPSJtZXNzYWdlIiBkYXRhLXBhcnRpY2lwYW50LTE9IkthZmthIiBkYXRhLXBhcnRpY2lwYW50LTI9IldvcmtlciI+PHBvbHlnb24gZmlsbD0iIzE4MTgxOCIgcG9pbnRzPSIxMTc2LDM3NC4xOTUzLDExODYsMzc4LjE5NTMsMTE3NiwzODIuMTk1MywxMTgwLDM3OC4xOTUzIiBzdHlsZT0ic3Ryb2tlOiMxODE4MTg7c3Ryb2tlLXdpZHRoOjE7Ii8+PGxpbmUgc3R5bGU9InN0cm9rZTojMTgxODE4O3N0cm9rZS13aWR0aDoxOyIgeDE9IjEwMTQuNSIgeDI9IjExODIiIHkxPSIzNzguMTk1MyIgeTI9IjM3OC4xOTUzIi8+PHRleHQgZmlsbD0iIzAwMDAwMCIgZm9udC1mYW1pbHk9InNhbnMtc2VyaWYiIGZvbnQtc2l6ZT0iMTMiIGxlbmd0aEFkanVzdD0ic3BhY2luZyIgdGV4dExlbmd0aD0iMTA0IiB4PSIxMDIxLjUiIHk9IjM3NC41NzAzIj5EZWxpdmVyIGV2ZW50KHMpPC90ZXh0PjwvZz48ZyBjbGFzcz0ibWVzc2FnZSIgZGF0YS1wYXJ0aWNpcGFudC0xPSJXb3JrZXIiIGRhdGEtcGFydGljaXBhbnQtMj0iU1FMIj48cG9seWdvbiBmaWxsPSIjMTgxODE4IiBwb2ludHM9IjE1MDUuNSw0MDIuMTA5NCwxNTE1LjUsNDA2LjEwOTQsMTUwNS41LDQxMC4xMDk0LDE1MDkuNSw0MDYuMTA5NCIgc3R5bGU9InN0cm9rZTojMTgxODE4O3N0cm9rZS13aWR0aDoxOyIvPjxsaW5lIHN0eWxlPSJzdHJva2U6IzE4MTgxODtzdHJva2Utd2lkdGg6MTsiIHgxPSIxMTg4IiB4Mj0iMTUxMS41IiB5MT0iNDA2LjEwOTQiIHkyPSI0MDYuMTA5NCIvPjx0ZXh0IGZpbGw9IiMwMDAwMDAiIGZvbnQtZmFtaWx5PSJzYW5zLXNlcmlmIiBmb250LXNpemU9IjEzIiBsZW5ndGhBZGp1c3Q9InNwYWNpbmciIHRleHRMZW5ndGg9IjMwNS41IiB4PSIxMTk1IiB5PSI0MDIuNDg0NCI+VXBzZXJ0IHJlY2VudCBzdGF0dXMgLyBsYXN0LXNlZW4gLyBlcnJvciBjb3VudHM8L3RleHQ+PC9nPjxnIGNsYXNzPSJtZXNzYWdlIiBkYXRhLXBhcnRpY2lwYW50LTE9IldvcmtlciIgZGF0YS1wYXJ0aWNpcGFudC0yPSJTbm93Zmxha2UiPjxwb2x5Z29uIGZpbGw9IiMxODE4MTgiIHBvaW50cz0iMTYyNi41LDQzMC4wMjM0LDE2MzYuNSw0MzQuMDIzNCwxNjI2LjUsNDM4LjAyMzQsMTYzMC41LDQzNC4wMjM0IiBzdHlsZT0ic3Ryb2tlOiMxODE4MTg7c3Ryb2tlLXdpZHRoOjE7Ii8+PGxpbmUgc3R5bGU9InN0cm9rZTojMTgxODE4O3N0cm9rZS13aWR0aDoxOyIgeDE9IjExODgiIHgyPSIxNjMyLjUiIHkxPSI0MzQuMDIzNCIgeTI9IjQzNC4wMjM0Ii8+PHRleHQgZmlsbD0iIzAwMDAwMCIgZm9udC1mYW1pbHk9InNhbnMtc2VyaWYiIGZvbnQtc2l6ZT0iMTMiIGxlbmd0aEFkanVzdD0ic3BhY2luZyIgdGV4dExlbmd0aD0iMTU2IiB4PSIxMTk1IiB5PSI0MzAuMzk4NCI+SW5zZXJ0IGVucmljaGVkIGV2ZW50KHMpPC90ZXh0PjwvZz48ZyBjbGFzcz0ibWVzc2FnZSIgZGF0YS1wYXJ0aWNpcGFudC0xPSJJbmdlc3Rpb24iIGRhdGEtcGFydGljaXBhbnQtMj0iR2F0ZXdheSI+PHBvbHlnb24gZmlsbD0iIzE4MTgxOCIgcG9pbnRzPSIzNzIsNDU3LjkzNzUsMzYyLDQ2MS45Mzc1LDM3Miw0NjUuOTM3NSwzNjgsNDYxLjkzNzUiIHN0eWxlPSJzdHJva2U6IzE4MTgxODtzdHJva2Utd2lkdGg6MTsiLz48bGluZSBzdHlsZT0ic3Ryb2tlOiMxODE4MTg7c3Ryb2tlLXdpZHRoOjE7c3Ryb2tlLWRhc2hhcnJheToyLjAsMi4wOyIgeDE9IjM2NiIgeDI9IjU5MiIgeTE9IjQ2MS45Mzc1IiB5Mj0iNDYxLjkzNzUiLz48dGV4dCBmaWxsPSIjMDAwMDAwIiBmb250LWZhbWlseT0ic2Fucy1zZXJpZiIgZm9udC1zaXplPSIxMyIgbGVuZ3RoQWRqdXN0PSJzcGFjaW5nIiB0ZXh0TGVuZ3RoPSIzOSIgeD0iMzc4IiB5PSI0NTguMzEyNSI+MjAwIE9LPC90ZXh0PjwvZz48ZyBjbGFzcz0ibWVzc2FnZSIgZGF0YS1wYXJ0aWNpcGFudC0xPSJHYXRld2F5IiBkYXRhLXBhcnRpY2lwYW50LTI9IkRldmljZSI+PHBvbHlnb24gZmlsbD0iIzE4MTgxOCIgcG9pbnRzPSIxNTMsNDg1Ljg1MTYsMTQzLDQ4OS44NTE2LDE1Myw0OTMuODUxNiwxNDksNDg5Ljg1MTYiIHN0eWxlPSJzdHJva2U6IzE4MTgxODtzdHJva2Utd2lkdGg6MTsiLz48bGluZSBzdHlsZT0ic3Ryb2tlOiMxODE4MTg7c3Ryb2tlLXdpZHRoOjE7c3Ryb2tlLWRhc2hhcnJheToyLjAsMi4wOyIgeDE9IjE0NyIgeDI9IjM2MCIgeTE9IjQ4OS44NTE2IiB5Mj0iNDg5Ljg1MTYiLz48dGV4dCBmaWxsPSIjMDAwMDAwIiBmb250LWZhbWlseT0ic2Fucy1zZXJpZiIgZm9udC1zaXplPSIxMyIgbGVuZ3RoQWRqdXN0PSJzcGFjaW5nIiB0ZXh0TGVuZ3RoPSIzOSIgeD0iMTU5IiB5PSI0ODYuMjI2NiI+MjAwIE9LPC90ZXh0PjwvZz48cmVjdCBmaWxsPSIjRUVFRUVFIiBoZWlnaHQ9IjMiIHN0eWxlPSJzdHJva2U6I0VFRUVFRTtzdHJva2Utd2lkdGg6MTsiIHdpZHRoPSIxNzEwLjUiIHg9IjAiIHk9IjUyNC44MDg2Ii8+PGxpbmUgc3R5bGU9InN0cm9rZTojMDAwMDAwO3N0cm9rZS13aWR0aDoxOyIgeDE9IjAiIHgyPSIxNzEwLjUiIHkxPSI1MjQuODA4NiIgeTI9IjUyNC44MDg2Ii8+PGxpbmUgc3R5bGU9InN0cm9rZTojMDAwMDAwO3N0cm9rZS13aWR0aDoxOyIgeDE9IjAiIHgyPSIxNzEwLjUiIHkxPSI1MjcuODA4NiIgeTI9IjUyNy44MDg2Ii8+PHJlY3QgZmlsbD0iI0VFRUVFRSIgaGVpZ2h0PSIyMS45MTQxIiBzdHlsZT0ic3Ryb2tlOiMwMDAwMDA7c3Ryb2tlLXdpZHRoOjI7IiB3aWR0aD0iMjM1IiB4PSI3MzcuNzUiIHk9IjUxNC44NTE2Ii8+PHRleHQgZmlsbD0iIzAwMDAwMCIgZm9udC1mYW1pbHk9InNhbnMtc2VyaWYiIGZvbnQtc2l6ZT0iMTMiIGZvbnQtd2VpZ2h0PSJib2xkIiBsZW5ndGhBZGp1c3Q9InNwYWNpbmciIHRleHRMZW5ndGg9IjIxNC41IiB4PSI3NDMuNzUiIHk9IjUzMS4xNDA2Ij5EZXZpY2UgbG9zZXMgcmVzcG9uc2UgYW5kIHJldHJpZXM8L3RleHQ+PHBhdGggZD0iTTUsNTUxLjc2NTYgTDUsNTc0Ljc2NTYgTDI3OSw1NzQuNzY1NiBMMjc5LDU2MS43NjU2IEwyNjksNTUxLjc2NTYgTDUsNTUxLjc2NTYiIGZpbGw9IiNGRUZGREQiIHN0eWxlPSJzdHJva2U6IzE4MTgxODtzdHJva2Utd2lkdGg6MC41OyIvPjxwYXRoIGQ9Ik0yNjksNTUxLjc2NTYgTDI2OSw1NjEuNzY1NiBMMjc5LDU2MS43NjU2IEwyNjksNTUxLjc2NTYiIGZpbGw9IiNGRUZGREQiIHN0eWxlPSJzdHJva2U6IzE4MTgxODtzdHJva2Utd2lkdGg6MC41OyIvPjx0ZXh0IGZpbGw9IiMwMDAwMDAiIGZvbnQtZmFtaWx5PSJzYW5zLXNlcmlmIiBmb250LXNpemU9IjEzIiBsZW5ndGhBZGp1c3Q9InNwYWNpbmciIHRleHRMZW5ndGg9IjI1My41IiB4PSIxMSIgeT0iNTY5LjA1NDciPk5ldHdvcmsgYmxpcCAmIzgyMTI7IGRldmljZSBuZXZlciBzZWVzIDIwMCBPSzwvdGV4dD48ZyBjbGFzcz0ibWVzc2FnZSIgZGF0YS1wYXJ0aWNpcGFudC0xPSJEZXZpY2UiIGRhdGEtcGFydGljaXBhbnQtMj0iR2F0ZXdheSI+PHBvbHlnb24gZmlsbD0iIzE4MTgxOCIgcG9pbnRzPSIzNDksNTk2LjU5MzgsMzU5LDYwMC41OTM4LDM0OSw2MDQuNTkzOCwzNTMsNjAwLjU5MzgiIHN0eWxlPSJzdHJva2U6IzE4MTgxODtzdHJva2Utd2lkdGg6MTsiLz48bGluZSBzdHlsZT0ic3Ryb2tlOiMxODE4MTg7c3Ryb2tlLXdpZHRoOjE7IiB4MT0iMTQyIiB4Mj0iMzU1IiB5MT0iNjAwLjU5MzgiIHkyPSI2MDAuNTkzOCIvPjx0ZXh0IGZpbGw9IiMwMDAwMDAiIGZvbnQtZmFtaWx5PSJzYW5zLXNlcmlmIiBmb250LXNpemU9IjEzIiBsZW5ndGhBZGp1c3Q9InNwYWNpbmciIHRleHRMZW5ndGg9IjE3NS41IiB4PSIxNDkiIHk9IjU5Ni45Njg4Ij5QT1NUIC9ldmVudHMgKHNhbWUgcGF5bG9hZCk8L3RleHQ+PC9nPjxnIGNsYXNzPSJtZXNzYWdlIiBkYXRhLXBhcnRpY2lwYW50LTE9IkdhdGV3YXkiIGRhdGEtcGFydGljaXBhbnQtMj0iSW5nZXN0aW9uIj48cG9seWdvbiBmaWxsPSIjMTgxODE4IiBwb2ludHM9IjU4MSw2MjQuNTA3OCw1OTEsNjI4LjUwNzgsNTgxLDYzMi41MDc4LDU4NSw2MjguNTA3OCIgc3R5bGU9InN0cm9rZTojMTgxODE4O3N0cm9rZS13aWR0aDoxOyIvPjxsaW5lIHN0eWxlPSJzdHJva2U6IzE4MTgxODtzdHJva2Utd2lkdGg6MTsiIHgxPSIzNjEiIHgyPSI1ODciIHkxPSI2MjguNTA3OCIgeTI9IjYyOC41MDc4Ii8+PHRleHQgZmlsbD0iIzAwMDAwMCIgZm9udC1mYW1pbHk9InNhbnMtc2VyaWYiIGZvbnQtc2l6ZT0iMTMiIGxlbmd0aEFkanVzdD0ic3BhY2luZyIgdGV4dExlbmd0aD0iOTcuNSIgeD0iMzY4IiB5PSI2MjQuODgyOCI+Rm9yd2FyZCByZXF1ZXN0PC90ZXh0PjwvZz48cGF0aCBkPSJNMTA4LDY0My41MDc4IEwxNzIuNSw2NDMuNTA3OCBMMTcyLjUsNjQ5LjQyMTkgTDE2Mi41LDY1OS40MjE5IEwxMDgsNjU5LjQyMTkgTDEwOCw2NDMuNTA3OCIgZmlsbD0iI0VFRUVFRSIgc3R5bGU9InN0cm9rZTojMDAwMDAwO3N0cm9rZS13aWR0aDoxLjU7Ii8+PHJlY3QgZmlsbD0ibm9uZSIgaGVpZ2h0PSIyMzkiIHN0eWxlPSJzdHJva2U6IzAwMDAwMDtzdHJva2Utd2lkdGg6MS41OyIgd2lkdGg9Ijk4NiIgeD0iMTA4IiB5PSI2NDMuNTA3OCIvPjx0ZXh0IGZpbGw9IiMwMDAwMDAiIGZvbnQtZmFtaWx5PSJzYW5zLXNlcmlmIiBmb250LXNpemU9IjEzIiBmb250LXdlaWdodD0iYm9sZCIgbGVuZ3RoQWRqdXN0PSJzcGFjaW5nIiB0ZXh0TGVuZ3RoPSIxOS41IiB4PSIxMjMiIHk9IjY1Ni43OTY5Ij5hbHQ8L3RleHQ+PHRleHQgZmlsbD0iIzAwMDAwMCIgZm9udC1mYW1pbHk9InNhbnMtc2VyaWYiIGZvbnQtc2l6ZT0iMTEiIGZvbnQtd2VpZ2h0PSJib2xkIiBsZW5ndGhBZGp1c3Q9InNwYWNpbmciIHRleHRMZW5ndGg9IjE1OS41IiB4PSIxODcuNSIgeT0iNjU1LjkwNjMiPltDYWNoZSBISVQgKGR1cGxpY2F0ZSBldmVudCldPC90ZXh0PjxnIGNsYXNzPSJtZXNzYWdlIiBkYXRhLXBhcnRpY2lwYW50LTE9IkluZ2VzdGlvbiIgZGF0YS1wYXJ0aWNpcGFudC0yPSJSZWRpcyI+PHBvbHlnb24gZmlsbD0iIzE4MTgxOCIgcG9pbnRzPSI4MzIuNSw2NzUuMzM1OSw4NDIuNSw2NzkuMzM1OSw4MzIuNSw2ODMuMzM1OSw4MzYuNSw2NzkuMzM1OSIgc3R5bGU9InN0cm9rZTojMTgxODE4O3N0cm9rZS13aWR0aDoxOyIvPjxsaW5lIHN0eWxlPSJzdHJva2U6IzE4MTgxODtzdHJva2Utd2lkdGg6MTsiIHgxPSI1OTMiIHgyPSI4MzguNSIgeTE9IjY3OS4zMzU5IiB5Mj0iNjc5LjMzNTkiLz48dGV4dCBmaWxsPSIjMDAwMDAwIiBmb250LWZhbWlseT0ic2Fucy1zZXJpZiIgZm9udC1zaXplPSIxMyIgbGVuZ3RoQWRqdXN0PSJzcGFjaW5nIiB0ZXh0TGVuZ3RoPSIyMjcuNSIgeD0iNjAwIiB5PSI2NzUuNzEwOSI+R0VUIGtleShkZXZpY2VJZCtldmVudElkK3RpbWVzdGFtcCk8L3RleHQ+PC9nPjxnIGNsYXNzPSJtZXNzYWdlIiBkYXRhLXBhcnRpY2lwYW50LTE9IlJlZGlzIiBkYXRhLXBhcnRpY2lwYW50LTI9IkluZ2VzdGlvbiI+PHBvbHlnb24gZmlsbD0iIzE4MTgxOCIgcG9pbnRzPSI2MDQsNzAzLjI1LDU5NCw3MDcuMjUsNjA0LDcxMS4yNSw2MDAsNzA3LjI1IiBzdHlsZT0ic3Ryb2tlOiMxODE4MTg7c3Ryb2tlLXdpZHRoOjE7Ii8+PGxpbmUgc3R5bGU9InN0cm9rZTojMTgxODE4O3N0cm9rZS13aWR0aDoxO3N0cm9rZS1kYXNoYXJyYXk6Mi4wLDIuMDsiIHgxPSI1OTgiIHgyPSI4NDMuNSIgeTE9IjcwNy4yNSIgeTI9IjcwNy4yNSIvPjx0ZXh0IGZpbGw9IiMwMDAwMDAiIGZvbnQtZmFtaWx5PSJzYW5zLXNlcmlmIiBmb250LXNpemU9IjEzIiBsZW5ndGhBZGp1c3Q9InNwYWNpbmciIHRleHRMZW5ndGg9IjE5LjUiIHg9IjYxMCIgeT0iNzAzLjYyNSI+SElUPC90ZXh0PjwvZz48ZyBjbGFzcz0ibWVzc2FnZSIgZGF0YS1wYXJ0aWNpcGFudC0xPSJJbmdlc3Rpb24iIGRhdGEtcGFydGljaXBhbnQtMj0iR2F0ZXdheSI+PHBvbHlnb24gZmlsbD0iIzE4MTgxOCIgcG9pbnRzPSIzNzIsNzQ1LjA3ODEsMzYyLDc0OS4wNzgxLDM3Miw3NTMuMDc4MSwzNjgsNzQ5LjA3ODEiIHN0eWxlPSJzdHJva2U6IzE4MTgxODtzdHJva2Utd2lkdGg6MTsiLz48bGluZSBzdHlsZT0ic3Ryb2tlOiMxODE4MTg7c3Ryb2tlLXdpZHRoOjE7c3Ryb2tlLWRhc2hhcnJheToyLjAsMi4wOyIgeDE9IjM2NiIgeDI9IjU5MiIgeTE9Ijc0OS4wNzgxIiB5Mj0iNzQ5LjA3ODEiLz48dGV4dCBmaWxsPSIjMDAwMDAwIiBmb250LWZhbWlseT0ic2Fucy1zZXJpZiIgZm9udC1zaXplPSIxMyIgbGVuZ3RoQWRqdXN0PSJzcGFjaW5nIiB0ZXh0TGVuZ3RoPSIxNjkiIHg9IjM3OCIgeT0iNzMxLjUzOTEiPjIwMCBPSyAoZHVwbGljYXRlIGlnbm9yZWQpPC90ZXh0Pjx0ZXh0IGZpbGw9IiMwMDAwMDAiIGZvbnQtZmFtaWx5PSJzYW5zLXNlcmlmIiBmb250LXNpemU9IjEzIiBsZW5ndGhBZGp1c3Q9InNwYWNpbmciIHRleHRMZW5ndGg9IjIwOCIgeD0iMzc4IiB5PSI3NDUuNDUzMSI+KG9yIDQwOS8yMDQgZGVwZW5kaW5nIG9uIHBvbGljeSk8L3RleHQ+PC9nPjxnIGNsYXNzPSJtZXNzYWdlIiBkYXRhLXBhcnRpY2lwYW50LTE9IkdhdGV3YXkiIGRhdGEtcGFydGljaXBhbnQtMj0iRGV2aWNlIj48cG9seWdvbiBmaWxsPSIjMTgxODE4IiBwb2ludHM9IjE1Myw3NzIuOTkyMiwxNDMsNzc2Ljk5MjIsMTUzLDc4MC45OTIyLDE0OSw3NzYuOTkyMiIgc3R5bGU9InN0cm9rZTojMTgxODE4O3N0cm9rZS13aWR0aDoxOyIvPjxsaW5lIHN0eWxlPSJzdHJva2U6IzE4MTgxODtzdHJva2Utd2lkdGg6MTtzdHJva2UtZGFzaGFycmF5OjIuMCwyLjA7IiB4MT0iMTQ3IiB4Mj0iMzYwIiB5MT0iNzc2Ljk5MjIiIHkyPSI3NzYuOTkyMiIvPjx0ZXh0IGZpbGw9IiMwMDAwMDAiIGZvbnQtZmFtaWx5PSJzYW5zLXNlcmlmIiBmb250LXNpemU9IjEzIiBsZW5ndGhBZGp1c3Q9InNwYWNpbmciIHRleHRMZW5ndGg9IjUyIiB4PSIxNTkiIHk9Ijc3My4zNjcyIj5SZXNwb25zZTwvdGV4dD48L2c+PGxpbmUgc3R5bGU9InN0cm9rZTojMDAwMDAwO3N0cm9rZS13aWR0aDoxO3N0cm9rZS1kYXNoYXJyYXk6Mi4wLDIuMDsiIHgxPSIxMDgiIHgyPSIxMDk0IiB5MT0iNzg1Ljk5MjIiIHkyPSI3ODUuOTkyMiIvPjx0ZXh0IGZpbGw9IiMwMDAwMDAiIGZvbnQtZmFtaWx5PSJzYW5zLXNlcmlmIiBmb250LXNpemU9IjExIiBmb250LXdlaWdodD0iYm9sZCIgbGVuZ3RoQWRqdXN0PSJzcGFjaW5nIiB0ZXh0TGVuZ3RoPSIyMDkiIHg9IjExMyIgeT0iNzk2LjM5MDYiPltDYWNoZSBNSVNTIGFnYWluIChyYXJlIHRpbWluZyBpc3N1ZSldPC90ZXh0PjxnIGNsYXNzPSJtZXNzYWdlIiBkYXRhLXBhcnRpY2lwYW50LTE9IkluZ2VzdGlvbiIgZGF0YS1wYXJ0aWNpcGFudC0yPSJSZWRpcyI+PHBvbHlnb24gZmlsbD0iIzE4MTgxOCIgcG9pbnRzPSI4MzIuNSw4MTQuNjc5Nyw4NDIuNSw4MTguNjc5Nyw4MzIuNSw4MjIuNjc5Nyw4MzYuNSw4MTguNjc5NyIgc3R5bGU9InN0cm9rZTojMTgxODE4O3N0cm9rZS13aWR0aDoxOyIvPjxsaW5lIHN0eWxlPSJzdHJva2U6IzE4MTgxODtzdHJva2Utd2lkdGg6MTsiIHgxPSI1OTMiIHgyPSI4MzguNSIgeTE9IjgxOC42Nzk3IiB5Mj0iODE4LjY3OTciLz48dGV4dCBmaWxsPSIjMDAwMDAwIiBmb250LWZhbWlseT0ic2Fucy1zZXJpZiIgZm9udC1zaXplPSIxMyIgbGVuZ3RoQWRqdXN0PSJzcGFjaW5nIiB0ZXh0TGVuZ3RoPSIyNiIgeD0iNjAwIiB5PSI4MTUuMDU0NyI+TUlTUzwvdGV4dD48L2c+PGcgY2xhc3M9Im1lc3NhZ2UiIGRhdGEtcGFydGljaXBhbnQtMT0iSW5nZXN0aW9uIiBkYXRhLXBhcnRpY2lwYW50LTI9IlJlZGlzIj48cG9seWdvbiBmaWxsPSIjMTgxODE4IiBwb2ludHM9IjgzMi41LDg0Mi41OTM4LDg0Mi41LDg0Ni41OTM4LDgzMi41LDg1MC41OTM4LDgzNi41LDg0Ni41OTM4IiBzdHlsZT0ic3Ryb2tlOiMxODE4MTg7c3Ryb2tlLXdpZHRoOjE7Ii8+PGxpbmUgc3R5bGU9InN0cm9rZTojMTgxODE4O3N0cm9rZS13aWR0aDoxOyIgeDE9IjU5MyIgeDI9IjgzOC41IiB5MT0iODQ2LjU5MzgiIHkyPSI4NDYuNTkzOCIvPjx0ZXh0IGZpbGw9IiMwMDAwMDAiIGZvbnQtZmFtaWx5PSJzYW5zLXNlcmlmIiBmb250LXNpemU9IjEzIiBsZW5ndGhBZGp1c3Q9InNwYWNpbmciIHRleHRMZW5ndGg9IjEzNi41IiB4PSI2MDAiIHk9Ijg0Mi45Njg4Ij5TRVQga2V5KC4uLiksIFRUTD00OGg8L3RleHQ+PC9nPjxnIGNsYXNzPSJtZXNzYWdlIiBkYXRhLXBhcnRpY2lwYW50LTE9IkluZ2VzdGlvbiIgZGF0YS1wYXJ0aWNpcGFudC0yPSJLYWZrYSI+PHBvbHlnb24gZmlsbD0iIzE4MTgxOCIgcG9pbnRzPSIxMDAyLjUsODcwLjUwNzgsMTAxMi41LDg3NC41MDc4LDEwMDIuNSw4NzguNTA3OCwxMDA2LjUsODc0LjUwNzgiIHN0eWxlPSJzdHJva2U6IzE4MTgxODtzdHJva2Utd2lkdGg6MTsiLz48bGluZSBzdHlsZT0ic3Ryb2tlOiMxODE4MTg7c3Ryb2tlLXdpZHRoOjE7IiB4MT0iNTkzIiB4Mj0iMTAwOC41IiB5MT0iODc0LjUwNzgiIHkyPSI4NzQuNTA3OCIvPjx0ZXh0IGZpbGw9IiMwMDAwMDAiIGZvbnQtZmFtaWx5PSJzYW5zLXNlcmlmIiBmb250LXNpemU9IjEzIiBsZW5ndGhBZGp1c3Q9InNwYWNpbmciIHRleHRMZW5ndGg9IjEwNCIgeD0iNjAwIiB5PSI4NzAuODgyOCI+UHVibGlzaCBldmVudChzKTwvdGV4dD48L2c+PHJlY3QgZmlsbD0iI0VFRUVFRSIgaGVpZ2h0PSIzIiBzdHlsZT0ic3Ryb2tlOiNFRUVFRUU7c3Ryb2tlLXdpZHRoOjE7IiB3aWR0aD0iMTcxMC41IiB4PSIwIiB5PSI5MDkuNDY0OCIvPjxsaW5lIHN0eWxlPSJzdHJva2U6IzAwMDAwMDtzdHJva2Utd2lkdGg6MTsiIHgxPSIwIiB4Mj0iMTcxMC41IiB5MT0iOTA5LjQ2NDgiIHkyPSI5MDkuNDY0OCIvPjxsaW5lIHN0eWxlPSJzdHJva2U6IzAwMDAwMDtzdHJva2Utd2lkdGg6MTsiIHgxPSIwIiB4Mj0iMTcxMC41IiB5MT0iOTEyLjQ2NDgiIHkyPSI5MTIuNDY0OCIvPjxyZWN0IGZpbGw9IiNFRUVFRUUiIGhlaWdodD0iMjEuOTE0MSIgc3R5bGU9InN0cm9rZTojMDAwMDAwO3N0cm9rZS13aWR0aDoyOyIgd2lkdGg9IjI2MSIgeD0iNzI0Ljc1IiB5PSI4OTkuNTA3OCIvPjx0ZXh0IGZpbGw9IiMwMDAwMDAiIGZvbnQtZmFtaWx5PSJzYW5zLXNlcmlmIiBmb250LXNpemU9IjEzIiBmb250LXdlaWdodD0iYm9sZCIgbGVuZ3RoQWRqdXN0PSJzcGFjaW5nIiB0ZXh0TGVuZ3RoPSIyNDAuNSIgeD0iNzMwLjc1IiB5PSI5MTUuNzk2OSI+T3B0aW9uYWw6IEthZmthIHJlLWRlbGl2ZXJ5IGR1cGxpY2F0ZTwvdGV4dD48dGV4dCBmaWxsPSIjMDAwMDAwIiBmb250LWZhbWlseT0ic2Fucy1zZXJpZiIgZm9udC1zaXplPSIxMSIgbGVuZ3RoQWRqdXN0PSJzcGFjaW5nIiB0ZXh0TGVuZ3RoPSIyMDMuNSIgeD0iNzg4LjUiIHk9Ijk1NS44MjAzIj5Xb3JrZXIgcmVzdGFydCAvIG9mZnNldCBub3QgY29tbWl0dGVkPC90ZXh0PjxnIGNsYXNzPSJtZXNzYWdlIiBkYXRhLXBhcnRpY2lwYW50LTE9IkthZmthIiBkYXRhLXBhcnRpY2lwYW50LTI9IldvcmtlciI+PHBvbHlnb24gZmlsbD0iIzE4MTgxOCIgcG9pbnRzPSIxMTc2LDk4Ny4xMDk0LDExODYsOTkxLjEwOTQsMTE3Niw5OTUuMTA5NCwxMTgwLDk5MS4xMDk0IiBzdHlsZT0ic3Ryb2tlOiMxODE4MTg7c3Ryb2tlLXdpZHRoOjE7Ii8+PGxpbmUgc3R5bGU9InN0cm9rZTojMTgxODE4O3N0cm9rZS13aWR0aDoxOyIgeDE9IjEwMTQuNSIgeDI9IjExODIiIHkxPSI5OTEuMTA5NCIgeTI9Ijk5MS4xMDk0Ii8+PHRleHQgZmlsbD0iIzAwMDAwMCIgZm9udC1mYW1pbHk9InNhbnMtc2VyaWYiIGZvbnQtc2l6ZT0iMTMiIGxlbmd0aEFkanVzdD0ic3BhY2luZyIgdGV4dExlbmd0aD0iMTQ5LjUiIHg9IjEwMjEuNSIgeT0iOTg3LjQ4NDQiPlJlLWRlbGl2ZXIgc2FtZSBtZXNzYWdlPC90ZXh0PjwvZz48ZyBjbGFzcz0ibWVzc2FnZSIgZGF0YS1wYXJ0aWNpcGFudC0xPSJXb3JrZXIiIGRhdGEtcGFydGljaXBhbnQtMj0iUmVkaXMiPjxwb2x5Z29uIGZpbGw9IiMxODE4MTgiIHBvaW50cz0iODU1LjUsMTAxNS4wMjM0LDg0NS41LDEwMTkuMDIzNCw4NTUuNSwxMDIzLjAyMzQsODUxLjUsMTAxOS4wMjM0IiBzdHlsZT0ic3Ryb2tlOiMxODE4MTg7c3Ryb2tlLXdpZHRoOjE7Ii8+PGxpbmUgc3R5bGU9InN0cm9rZTojMTgxODE4O3N0cm9rZS13aWR0aDoxOyIgeDE9Ijg0OS41IiB4Mj0iMTE4NyIgeTE9IjEwMTkuMDIzNCIgeTI9IjEwMTkuMDIzNCIvPjx0ZXh0IGZpbGw9IiMwMDAwMDAiIGZvbnQtZmFtaWx5PSJzYW5zLXNlcmlmIiBmb250LXNpemU9IjEzIiBsZW5ndGhBZGp1c3Q9InNwYWNpbmciIHRleHRMZW5ndGg9IjIyNy41IiB4PSI4NjEuNSIgeT0iMTAxNS4zOTg0Ij5HRVQga2V5KGRldmljZUlkK2V2ZW50SWQrdGltZXN0YW1wKTwvdGV4dD48L2c+PGcgY2xhc3M9Im1lc3NhZ2UiIGRhdGEtcGFydGljaXBhbnQtMT0iUmVkaXMiIGRhdGEtcGFydGljaXBhbnQtMj0iV29ya2VyIj48cG9seWdvbiBmaWxsPSIjMTgxODE4IiBwb2ludHM9IjExNzYsMTA0Mi45Mzc1LDExODYsMTA0Ni45Mzc1LDExNzYsMTA1MC45Mzc1LDExODAsMTA0Ni45Mzc1IiBzdHlsZT0ic3Ryb2tlOiMxODE4MTg7c3Ryb2tlLXdpZHRoOjE7Ii8+PGxpbmUgc3R5bGU9InN0cm9rZTojMTgxODE4O3N0cm9rZS13aWR0aDoxO3N0cm9rZS1kYXNoYXJyYXk6Mi4wLDIuMDsiIHgxPSI4NDQuNSIgeDI9IjExODIiIHkxPSIxMDQ2LjkzNzUiIHkyPSIxMDQ2LjkzNzUiLz48dGV4dCBmaWxsPSIjMDAwMDAwIiBmb250LWZhbWlseT0ic2Fucy1zZXJpZiIgZm9udC1zaXplPSIxMyIgbGVuZ3RoQWRqdXN0PSJzcGFjaW5nIiB0ZXh0TGVuZ3RoPSI2NSIgeD0iODUxLjUiIHk9IjEwNDMuMzEyNSI+SElUIChza2lwKTwvdGV4dD48L2c+PGcgY2xhc3M9Im1lc3NhZ2UiIGRhdGEtcGFydGljaXBhbnQtMT0iV29ya2VyIiBkYXRhLXBhcnRpY2lwYW50LTI9IkthZmthIj48cG9seWdvbiBmaWxsPSIjMTgxODE4IiBwb2ludHM9IjEwMjUuNSwxMDcwLjg1MTYsMTAxNS41LDEwNzQuODUxNiwxMDI1LjUsMTA3OC44NTE2LDEwMjEuNSwxMDc0Ljg1MTYiIHN0eWxlPSJzdHJva2U6IzE4MTgxODtzdHJva2Utd2lkdGg6MTsiLz48bGluZSBzdHlsZT0ic3Ryb2tlOiMxODE4MTg7c3Ryb2tlLXdpZHRoOjE7c3Ryb2tlLWRhc2hhcnJheToyLjAsMi4wOyIgeDE9IjEwMTkuNSIgeDI9IjExODciIHkxPSIxMDc0Ljg1MTYiIHkyPSIxMDc0Ljg1MTYiLz48dGV4dCBmaWxsPSIjMDAwMDAwIiBmb250LWZhbWlseT0ic2Fucy1zZXJpZiIgZm9udC1zaXplPSIxMyIgbGVuZ3RoQWRqdXN0PSJzcGFjaW5nIiB0ZXh0TGVuZ3RoPSI4NC41IiB4PSIxMDMxLjUiIHk9IjEwNzEuMjI2NiI+Q29tbWl0IG9mZnNldDwvdGV4dD48L2c+PCEtLVNSQz1bakxKQlJqaW00QnBoQW5Pdm9LV1M2cTRFaEcwTlNGRWdhcEhFQkhVLXpCQUhyWlBYWUxIOUFlUGtfT1gtT1ItYUlxZ292SFAxc2FERURpWlh4NzFjQTJqaUhkMTlwbzhYYzk3TDVNbzVOU0NhZlJuR2JjSElHTlhQNWZiOHExOVNGUEVxUzJxb0l2aElOWDFXT2ZMa3BXUzVRWWlJS0kxWlppUUY0eFpYQ3JraXUxV011LWlaR0RFazc0OGRTYU42MllLWDlrc09GN0l0NmdIZXlHYURtVDZDS2M0V3hBZ3htNkhERk5fMnhtUlZJb2VQVWVWQjNLOU9BX3ZPY1hoWUxtLWROcWFqYWROa08wa2JEd0d6aUZ4UjZIcl9rVlZvSTRDdUJIZXdOa24yZkRla0N6bUdNeFBlMEVySTQ4bjZSOW1zNWlSTWlkbUJlcjdHNkRfX3ExZUptVUNxZGlFMGQ2by13VXJZVldBdHlWRzFkajBjd3J4R01pZjdUV1A1U0F0cTVkS0FjbFpzRjI5eW5hb21pM2dacERPa21VVDk3NENlUUdrVWxuVjBkaUduVVdDWmtCY1FtdVFnQ0ZOZzlrY25IX0VsNUpjM0NJX1NvSmdCX2c0R0QtNDVyaFhYRkpxenhQdDBWN3VfRWQtdF9YRmh5czRKb2dUQ2M3S2pDcEhrTjlxZEctZmE4WXZUOWJtUTdLb3p2SzBTSjBIVjJxRlFpWWM5MnZVNXN6QjAwMzhxamMtODlGeWRoUmNfWUloUHhLRTJEaFk4MU5lUXlac1hqM2ttZXhzUnVUYm0yREN4dGotYm5SanJyaGpEYWdkbEg1RTFKMWFvQkRLS1lpUzFJWFVjck84TmtJVUlvbXhBdFJQYlVJMnhQUjcwRlhObXd5VEZnQ0MySUd4NWpwRmplRFRCUFowZEFCM0E1QVJfc0Ixa2dwdkR2WDJja3NfNE1yTUJueHBjVTVVNk00ZGJsYjdWUENXOWRtX1YzeXc2di1uSW1TT0JrRzljQTFIWmd6dUJFU3NRQjBCQUU5M0UweThMMldjWEhhdDBpWHNQQ0FRYWIteHlMYy1ZUlQycVM0WkNla1FEUUVnZHpUa2VPRXk3anVZZGowdE5wY21rekczS1NjZDgwWlVDZHE2VTJfdXVmUzM4dUF5N0R6bG5XY3lDMXNQbUhTNy1xVm43b0ZrOE10ZlY4eENIbERhb3hZel91UUtyT2R5M10tLT48L2c+PC9zdmc+;labelBackgroundColor=light-dark(#000000,#000000);" vertex="1" parent="1">
            <mxGeometry x="1110" y="193.5" width="1717" height="1172" as="geometry" />
          </mxCell>
        </UserObject>
        <UserObject label="" plantUmlData="{&#xa;  &quot;data&quot;: &quot;@startuml\nactor Device\nparticipant \&quot;API Gateway\&quot; as APIGW\nparticipant \&quot;Ingestion Service\&quot; as Ingest\nparticipant \&quot;Redis\&quot;\nparticipant \&quot;Kafka\&quot;\nparticipant \&quot;Enrichment Worker\&quot; as Enrich\ndatabase \&quot;SQL Server\&quot; as SQL\ndatabase \&quot;Snowflake\&quot; as Snowflake\n\nDevice -&gt; APIGW: Send JSON payload (daily)\nAPIGW -&gt; Ingest: Forward request (JWT validated)\n\nalt Cache MISS (new event)\n  Ingest -&gt; Redis: GET key(deviceId+eventId+timestamp)\n  Redis --&gt; Ingest: MISS\n  Ingest -&gt; Redis: SET key(...), TTL=48h\n  Ingest -&gt; Kafka: Push valid event\n  Enrich -&gt; Kafka: Consume event\n  Enrich -&gt; SQL: Update recent status, errors, last-seen\n  Enrich -&gt; Snowflake: Store enriched data (for BI/Graphana)\nelse Cache HIT (duplicate event)\n  Ingest -&gt; Redis: GET key(deviceId+eventId+timestamp)\n  Redis --&gt; Ingest: HIT\n  Ingest --&gt; APIGW: 200 OK (duplicate ignored)\nend\n\n@enduml\n&quot;,&#xa;  &quot;format&quot;: &quot;svg&quot;&#xa;}" id="Hzrix0PqcfKvZ3qZCdGW-56">
          <mxCell style="shape=image;noLabel=1;verticalAlign=top;aspect=fixed;imageAspect=0;image=data:image/svg+xml,PHN2ZyB4bWxucz0iaHR0cDovL3d3dy53My5vcmcvMjAwMC9zdmciIHhtbG5zOnhsaW5rPSJodHRwOi8vd3d3LnczLm9yZy8xOTk5L3hsaW5rIiBjb250ZW50U3R5bGVUeXBlPSJ0ZXh0L2NzcyIgZGF0YS1kaWFncmFtLXR5cGU9IlNFUVVFTkNFIiBoZWlnaHQ9IjU1OHB4IiBwcmVzZXJ2ZUFzcGVjdFJhdGlvPSJub25lIiBzdHlsZT0id2lkdGg6MTI3MXB4O2hlaWdodDo1NThweDtiYWNrZ3JvdW5kOiNGRkZGRkY7IiB2ZXJzaW9uPSIxLjEiIHZpZXdCb3g9IjAgMCAxMjcxIDU1OCIgd2lkdGg9IjEyNzFweCIgem9vbUFuZFBhbj0ibWFnbmlmeSI+PGRlZnMvPjxnPjxyZWN0IGZpbGw9Im5vbmUiIGhlaWdodD0iMzA4LjgyODEiIHN0eWxlPSJzdHJva2U6IzAwMDAwMDtzdHJva2Utd2lkdGg6MS41OyIgd2lkdGg9IjExMDQuNSIgeD0iMTYwIiB5PSIxNTIuODEyNSIvPjxnPjx0aXRsZT5EZXZpY2U8L3RpdGxlPjxyZWN0IGZpbGw9IiMwMDAwMDAiIGZpbGwtb3BhY2l0eT0iMC4wMDAwMCIgaGVpZ2h0PSIzOTguNjU2MyIgd2lkdGg9IjgiIHg9IjI1IiB5PSI3OS45ODQ0Ii8+PGxpbmUgc3R5bGU9InN0cm9rZTojMTgxODE4O3N0cm9rZS13aWR0aDowLjU7c3Ryb2tlLWRhc2hhcnJheTo1LjAsNS4wOyIgeDE9IjI5IiB4Mj0iMjkiIHkxPSI3OS45ODQ0IiB5Mj0iNDc4LjY0MDYiLz48L2c+PGc+PHRpdGxlPkFQSSBHYXRld2F5PC90aXRsZT48cmVjdCBmaWxsPSIjMDAwMDAwIiBmaWxsLW9wYWNpdHk9IjAuMDAwMDAiIGhlaWdodD0iMzk4LjY1NjMiIHdpZHRoPSI4IiB4PSIyMTEuNSIgeT0iNzkuOTg0NCIvPjxsaW5lIHN0eWxlPSJzdHJva2U6IzE4MTgxODtzdHJva2Utd2lkdGg6MC41O3N0cm9rZS1kYXNoYXJyYXk6NS4wLDUuMDsiIHgxPSIyMTUiIHgyPSIyMTUiIHkxPSI3OS45ODQ0IiB5Mj0iNDc4LjY0MDYiLz48L2c+PGc+PHRpdGxlPkluZ2VzdGlvbiBTZXJ2aWNlPC90aXRsZT48cmVjdCBmaWxsPSIjMDAwMDAwIiBmaWxsLW9wYWNpdHk9IjAuMDAwMDAiIGhlaWdodD0iMzk4LjY1NjMiIHdpZHRoPSI4IiB4PSI0MzciIHk9Ijc5Ljk4NDQiLz48bGluZSBzdHlsZT0ic3Ryb2tlOiMxODE4MTg7c3Ryb2tlLXdpZHRoOjAuNTtzdHJva2UtZGFzaGFycmF5OjUuMCw1LjA7IiB4MT0iNDQwLjUiIHgyPSI0NDAuNSIgeTE9Ijc5Ljk4NDQiIHkyPSI0NzguNjQwNiIvPjwvZz48Zz48dGl0bGU+UmVkaXM8L3RpdGxlPjxyZWN0IGZpbGw9IiMwMDAwMDAiIGZpbGwtb3BhY2l0eT0iMC4wMDAwMCIgaGVpZ2h0PSIzOTguNjU2MyIgd2lkdGg9IjgiIHg9IjY4OC41IiB5PSI3OS45ODQ0Ii8+PGxpbmUgc3R5bGU9InN0cm9rZTojMTgxODE4O3N0cm9rZS13aWR0aDowLjU7c3Ryb2tlLWRhc2hhcnJheTo1LjAsNS4wOyIgeDE9IjY5MiIgeDI9IjY5MiIgeTE9Ijc5Ljk4NDQiIHkyPSI0NzguNjQwNiIvPjwvZz48Zz48dGl0bGU+S2Fma2E8L3RpdGxlPjxyZWN0IGZpbGw9IiMwMDAwMDAiIGZpbGwtb3BhY2l0eT0iMC4wMDAwMCIgaGVpZ2h0PSIzOTguNjU2MyIgd2lkdGg9IjgiIHg9Ijc0Ny41IiB5PSI3OS45ODQ0Ii8+PGxpbmUgc3R5bGU9InN0cm9rZTojMTgxODE4O3N0cm9rZS13aWR0aDowLjU7c3Ryb2tlLWRhc2hhcnJheTo1LjAsNS4wOyIgeDE9Ijc1MSIgeDI9Ijc1MSIgeTE9Ijc5Ljk4NDQiIHkyPSI0NzguNjQwNiIvPjwvZz48Zz48dGl0bGU+RW5yaWNobWVudCBXb3JrZXI8L3RpdGxlPjxyZWN0IGZpbGw9IiMwMDAwMDAiIGZpbGwtb3BhY2l0eT0iMC4wMDAwMCIgaGVpZ2h0PSIzOTguNjU2MyIgd2lkdGg9IjgiIHg9Ijg1NiIgeT0iNzkuOTg0NCIvPjxsaW5lIHN0eWxlPSJzdHJva2U6IzE4MTgxODtzdHJva2Utd2lkdGg6MC41O3N0cm9rZS1kYXNoYXJyYXk6NS4wLDUuMDsiIHgxPSI4NTkuNSIgeDI9Ijg1OS41IiB5MT0iNzkuOTg0NCIgeTI9IjQ3OC42NDA2Ii8+PC9nPjxnPjx0aXRsZT5TUUwgU2VydmVyPC90aXRsZT48cmVjdCBmaWxsPSIjMDAwMDAwIiBmaWxsLW9wYWNpdHk9IjAuMDAwMDAiIGhlaWdodD0iMzk4LjY1NjMiIHdpZHRoPSI4IiB4PSIxMTMzLjUiIHk9Ijc5Ljk4NDQiLz48bGluZSBzdHlsZT0ic3Ryb2tlOiMxODE4MTg7c3Ryb2tlLXdpZHRoOjAuNTtzdHJva2UtZGFzaGFycmF5OjUuMCw1LjA7IiB4MT0iMTEzNy41IiB4Mj0iMTEzNy41IiB5MT0iNzkuOTg0NCIgeTI9IjQ3OC42NDA2Ii8+PC9nPjxnPjx0aXRsZT5Tbm93Zmxha2U8L3RpdGxlPjxyZWN0IGZpbGw9IiMwMDAwMDAiIGZpbGwtb3BhY2l0eT0iMC4wMDAwMCIgaGVpZ2h0PSIzOTguNjU2MyIgd2lkdGg9IjgiIHg9IjEyMTYiIHk9Ijc5Ljk4NDQiLz48bGluZSBzdHlsZT0ic3Ryb2tlOiMxODE4MTg7c3Ryb2tlLXdpZHRoOjAuNTtzdHJva2UtZGFzaGFycmF5OjUuMCw1LjA7IiB4MT0iMTIxOS41IiB4Mj0iMTIxOS41IiB5MT0iNzkuOTg0NCIgeTI9IjQ3OC42NDA2Ii8+PC9nPjxnIGNsYXNzPSJwYXJ0aWNpcGFudCBwYXJ0aWNpcGFudC1oZWFkIiBkYXRhLXBhcnRpY2lwYW50PSJEZXZpY2UiPjx0ZXh0IGZpbGw9IiMwMDAwMDAiIGZvbnQtZmFtaWx5PSJzYW5zLXNlcmlmIiBmb250LXNpemU9IjE0IiBsZW5ndGhBZGp1c3Q9InNwYWNpbmciIHRleHRMZW5ndGg9IjQyIiB4PSI1IiB5PSI3OC4yMzQ0Ij5EZXZpY2U8L3RleHQ+PGVsbGlwc2UgY3g9IjI5IiBjeT0iMTMuNSIgZmlsbD0iI0UyRTJGMCIgcng9IjgiIHJ5PSI4IiBzdHlsZT0ic3Ryb2tlOiMxODE4MTg7c3Ryb2tlLXdpZHRoOjAuNTsiLz48cGF0aCBkPSJNMjksMjEuNSBMMjksNDguNSBNMTYsMjkuNSBMNDIsMjkuNSBNMjksNDguNSBMMTYsNjMuNSBNMjksNDguNSBMNDIsNjMuNSIgZmlsbD0ibm9uZSIgc3R5bGU9InN0cm9rZTojMTgxODE4O3N0cm9rZS13aWR0aDowLjU7Ii8+PC9nPjxnIGNsYXNzPSJwYXJ0aWNpcGFudCBwYXJ0aWNpcGFudC10YWlsIiBkYXRhLXBhcnRpY2lwYW50PSJEZXZpY2UiPjx0ZXh0IGZpbGw9IiMwMDAwMDAiIGZvbnQtZmFtaWx5PSJzYW5zLXNlcmlmIiBmb250LXNpemU9IjE0IiBsZW5ndGhBZGp1c3Q9InNwYWNpbmciIHRleHRMZW5ndGg9IjQyIiB4PSI1IiB5PSI0OTAuODc1Ij5EZXZpY2U8L3RleHQ+PGVsbGlwc2UgY3g9IjI5IiBjeT0iNTAxLjEyNSIgZmlsbD0iI0UyRTJGMCIgcng9IjgiIHJ5PSI4IiBzdHlsZT0ic3Ryb2tlOiMxODE4MTg7c3Ryb2tlLXdpZHRoOjAuNTsiLz48cGF0aCBkPSJNMjksNTA5LjEyNSBMMjksNTM2LjEyNSBNMTYsNTE3LjEyNSBMNDIsNTE3LjEyNSBNMjksNTM2LjEyNSBMMTYsNTUxLjEyNSBNMjksNTM2LjEyNSBMNDIsNTUxLjEyNSIgZmlsbD0ibm9uZSIgc3R5bGU9InN0cm9rZTojMTgxODE4O3N0cm9rZS13aWR0aDowLjU7Ii8+PC9nPjxnIGNsYXNzPSJwYXJ0aWNpcGFudCBwYXJ0aWNpcGFudC1oZWFkIiBkYXRhLXBhcnRpY2lwYW50PSJBUElHVyI+PHJlY3QgZmlsbD0iI0UyRTJGMCIgaGVpZ2h0PSIyOC45ODQ0IiByeD0iMi41IiByeT0iMi41IiBzdHlsZT0ic3Ryb2tlOiMxODE4MTg7c3Ryb2tlLXdpZHRoOjAuNTsiIHdpZHRoPSI5MSIgeD0iMTcwIiB5PSI1MCIvPjx0ZXh0IGZpbGw9IiMwMDAwMDAiIGZvbnQtZmFtaWx5PSJzYW5zLXNlcmlmIiBmb250LXNpemU9IjE0IiBsZW5ndGhBZGp1c3Q9InNwYWNpbmciIHRleHRMZW5ndGg9Ijc3IiB4PSIxNzciIHk9IjcwLjIzNDQiPkFQSSBHYXRld2F5PC90ZXh0PjwvZz48ZyBjbGFzcz0icGFydGljaXBhbnQgcGFydGljaXBhbnQtdGFpbCIgZGF0YS1wYXJ0aWNpcGFudD0iQVBJR1ciPjxyZWN0IGZpbGw9IiNFMkUyRjAiIGhlaWdodD0iMjguOTg0NCIgcng9IjIuNSIgcnk9IjIuNSIgc3R5bGU9InN0cm9rZTojMTgxODE4O3N0cm9rZS13aWR0aDowLjU7IiB3aWR0aD0iOTEiIHg9IjE3MCIgeT0iNDc3LjY0MDYiLz48dGV4dCBmaWxsPSIjMDAwMDAwIiBmb250LWZhbWlseT0ic2Fucy1zZXJpZiIgZm9udC1zaXplPSIxNCIgbGVuZ3RoQWRqdXN0PSJzcGFjaW5nIiB0ZXh0TGVuZ3RoPSI3NyIgeD0iMTc3IiB5PSI0OTcuODc1Ij5BUEkgR2F0ZXdheTwvdGV4dD48L2c+PGcgY2xhc3M9InBhcnRpY2lwYW50IHBhcnRpY2lwYW50LWhlYWQiIGRhdGEtcGFydGljaXBhbnQ9IkluZ2VzdCI+PHJlY3QgZmlsbD0iI0UyRTJGMCIgaGVpZ2h0PSIyOC45ODQ0IiByeD0iMi41IiByeT0iMi41IiBzdHlsZT0ic3Ryb2tlOiMxODE4MTg7c3Ryb2tlLXdpZHRoOjAuNTsiIHdpZHRoPSIxMzMiIHg9IjM3NC41IiB5PSI1MCIvPjx0ZXh0IGZpbGw9IiMwMDAwMDAiIGZvbnQtZmFtaWx5PSJzYW5zLXNlcmlmIiBmb250LXNpemU9IjE0IiBsZW5ndGhBZGp1c3Q9InNwYWNpbmciIHRleHRMZW5ndGg9IjExOSIgeD0iMzgxLjUiIHk9IjcwLjIzNDQiPkluZ2VzdGlvbiBTZXJ2aWNlPC90ZXh0PjwvZz48ZyBjbGFzcz0icGFydGljaXBhbnQgcGFydGljaXBhbnQtdGFpbCIgZGF0YS1wYXJ0aWNpcGFudD0iSW5nZXN0Ij48cmVjdCBmaWxsPSIjRTJFMkYwIiBoZWlnaHQ9IjI4Ljk4NDQiIHJ4PSIyLjUiIHJ5PSIyLjUiIHN0eWxlPSJzdHJva2U6IzE4MTgxODtzdHJva2Utd2lkdGg6MC41OyIgd2lkdGg9IjEzMyIgeD0iMzc0LjUiIHk9IjQ3Ny42NDA2Ii8+PHRleHQgZmlsbD0iIzAwMDAwMCIgZm9udC1mYW1pbHk9InNhbnMtc2VyaWYiIGZvbnQtc2l6ZT0iMTQiIGxlbmd0aEFkanVzdD0ic3BhY2luZyIgdGV4dExlbmd0aD0iMTE5IiB4PSIzODEuNSIgeT0iNDk3Ljg3NSI+SW5nZXN0aW9uIFNlcnZpY2U8L3RleHQ+PC9nPjxnIGNsYXNzPSJwYXJ0aWNpcGFudCBwYXJ0aWNpcGFudC1oZWFkIiBkYXRhLXBhcnRpY2lwYW50PSJSZWRpcyI+PHJlY3QgZmlsbD0iI0UyRTJGMCIgaGVpZ2h0PSIyOC45ODQ0IiByeD0iMi41IiByeT0iMi41IiBzdHlsZT0ic3Ryb2tlOiMxODE4MTg7c3Ryb2tlLXdpZHRoOjAuNTsiIHdpZHRoPSI0OSIgeD0iNjY4IiB5PSI1MCIvPjx0ZXh0IGZpbGw9IiMwMDAwMDAiIGZvbnQtZmFtaWx5PSJzYW5zLXNlcmlmIiBmb250LXNpemU9IjE0IiBsZW5ndGhBZGp1c3Q9InNwYWNpbmciIHRleHRMZW5ndGg9IjM1IiB4PSI2NzUiIHk9IjcwLjIzNDQiPlJlZGlzPC90ZXh0PjwvZz48ZyBjbGFzcz0icGFydGljaXBhbnQgcGFydGljaXBhbnQtdGFpbCIgZGF0YS1wYXJ0aWNpcGFudD0iUmVkaXMiPjxyZWN0IGZpbGw9IiNFMkUyRjAiIGhlaWdodD0iMjguOTg0NCIgcng9IjIuNSIgcnk9IjIuNSIgc3R5bGU9InN0cm9rZTojMTgxODE4O3N0cm9rZS13aWR0aDowLjU7IiB3aWR0aD0iNDkiIHg9IjY2OCIgeT0iNDc3LjY0MDYiLz48dGV4dCBmaWxsPSIjMDAwMDAwIiBmb250LWZhbWlseT0ic2Fucy1zZXJpZiIgZm9udC1zaXplPSIxNCIgbGVuZ3RoQWRqdXN0PSJzcGFjaW5nIiB0ZXh0TGVuZ3RoPSIzNSIgeD0iNjc1IiB5PSI0OTcuODc1Ij5SZWRpczwvdGV4dD48L2c+PGcgY2xhc3M9InBhcnRpY2lwYW50IHBhcnRpY2lwYW50LWhlYWQiIGRhdGEtcGFydGljaXBhbnQ9IkthZmthIj48cmVjdCBmaWxsPSIjRTJFMkYwIiBoZWlnaHQ9IjI4Ljk4NDQiIHJ4PSIyLjUiIHJ5PSIyLjUiIHN0eWxlPSJzdHJva2U6IzE4MTgxODtzdHJva2Utd2lkdGg6MC41OyIgd2lkdGg9IjQ5IiB4PSI3MjciIHk9IjUwIi8+PHRleHQgZmlsbD0iIzAwMDAwMCIgZm9udC1mYW1pbHk9InNhbnMtc2VyaWYiIGZvbnQtc2l6ZT0iMTQiIGxlbmd0aEFkanVzdD0ic3BhY2luZyIgdGV4dExlbmd0aD0iMzUiIHg9IjczNCIgeT0iNzAuMjM0NCI+S2Fma2E8L3RleHQ+PC9nPjxnIGNsYXNzPSJwYXJ0aWNpcGFudCBwYXJ0aWNpcGFudC10YWlsIiBkYXRhLXBhcnRpY2lwYW50PSJLYWZrYSI+PHJlY3QgZmlsbD0iI0UyRTJGMCIgaGVpZ2h0PSIyOC45ODQ0IiByeD0iMi41IiByeT0iMi41IiBzdHlsZT0ic3Ryb2tlOiMxODE4MTg7c3Ryb2tlLXdpZHRoOjAuNTsiIHdpZHRoPSI0OSIgeD0iNzI3IiB5PSI0NzcuNjQwNiIvPjx0ZXh0IGZpbGw9IiMwMDAwMDAiIGZvbnQtZmFtaWx5PSJzYW5zLXNlcmlmIiBmb250LXNpemU9IjE0IiBsZW5ndGhBZGp1c3Q9InNwYWNpbmciIHRleHRMZW5ndGg9IjM1IiB4PSI3MzQiIHk9IjQ5Ny44NzUiPkthZmthPC90ZXh0PjwvZz48ZyBjbGFzcz0icGFydGljaXBhbnQgcGFydGljaXBhbnQtaGVhZCIgZGF0YS1wYXJ0aWNpcGFudD0iRW5yaWNoIj48cmVjdCBmaWxsPSIjRTJFMkYwIiBoZWlnaHQ9IjI4Ljk4NDQiIHJ4PSIyLjUiIHJ5PSIyLjUiIHN0eWxlPSJzdHJva2U6IzE4MTgxODtzdHJva2Utd2lkdGg6MC41OyIgd2lkdGg9IjEzMyIgeD0iNzkzLjUiIHk9IjUwIi8+PHRleHQgZmlsbD0iIzAwMDAwMCIgZm9udC1mYW1pbHk9InNhbnMtc2VyaWYiIGZvbnQtc2l6ZT0iMTQiIGxlbmd0aEFkanVzdD0ic3BhY2luZyIgdGV4dExlbmd0aD0iMTE5IiB4PSI4MDAuNSIgeT0iNzAuMjM0NCI+RW5yaWNobWVudCBXb3JrZXI8L3RleHQ+PC9nPjxnIGNsYXNzPSJwYXJ0aWNpcGFudCBwYXJ0aWNpcGFudC10YWlsIiBkYXRhLXBhcnRpY2lwYW50PSJFbnJpY2giPjxyZWN0IGZpbGw9IiNFMkUyRjAiIGhlaWdodD0iMjguOTg0NCIgcng9IjIuNSIgcnk9IjIuNSIgc3R5bGU9InN0cm9rZTojMTgxODE4O3N0cm9rZS13aWR0aDowLjU7IiB3aWR0aD0iMTMzIiB4PSI3OTMuNSIgeT0iNDc3LjY0MDYiLz48dGV4dCBmaWxsPSIjMDAwMDAwIiBmb250LWZhbWlseT0ic2Fucy1zZXJpZiIgZm9udC1zaXplPSIxNCIgbGVuZ3RoQWRqdXN0PSJzcGFjaW5nIiB0ZXh0TGVuZ3RoPSIxMTkiIHg9IjgwMC41IiB5PSI0OTcuODc1Ij5FbnJpY2htZW50IFdvcmtlcjwvdGV4dD48L2c+PGcgY2xhc3M9InBhcnRpY2lwYW50IHBhcnRpY2lwYW50LWhlYWQiIGRhdGEtcGFydGljaXBhbnQ9IlNRTCI+PHRleHQgZmlsbD0iIzAwMDAwMCIgZm9udC1mYW1pbHk9InNhbnMtc2VyaWYiIGZvbnQtc2l6ZT0iMTQiIGxlbmd0aEFkanVzdD0ic3BhY2luZyIgdGV4dExlbmd0aD0iNzAiIHg9IjEwOTkuNSIgeT0iNzguMjM0NCI+U1FMIFNlcnZlcjwvdGV4dD48cGF0aCBkPSJNMTExOS41LDI5IEMxMTE5LjUsMTkgMTEzNy41LDE5IDExMzcuNSwxOSBDMTEzNy41LDE5IDExNTUuNSwxOSAxMTU1LjUsMjkgTDExNTUuNSw1NSBDMTE1NS41LDY1IDExMzcuNSw2NSAxMTM3LjUsNjUgQzExMzcuNSw2NSAxMTE5LjUsNjUgMTExOS41LDU1IEwxMTE5LjUsMjkiIGZpbGw9IiNFMkUyRjAiIHN0eWxlPSJzdHJva2U6IzE4MTgxODtzdHJva2Utd2lkdGg6MS41OyIvPjxwYXRoIGQ9Ik0xMTE5LjUsMjkgQzExMTkuNSwzOSAxMTM3LjUsMzkgMTEzNy41LDM5IEMxMTM3LjUsMzkgMTE1NS41LDM5IDExNTUuNSwyOSIgZmlsbD0ibm9uZSIgc3R5bGU9InN0cm9rZTojMTgxODE4O3N0cm9rZS13aWR0aDoxLjU7Ii8+PC9nPjxnIGNsYXNzPSJwYXJ0aWNpcGFudCBwYXJ0aWNpcGFudC10YWlsIiBkYXRhLXBhcnRpY2lwYW50PSJTUUwiPjx0ZXh0IGZpbGw9IiMwMDAwMDAiIGZvbnQtZmFtaWx5PSJzYW5zLXNlcmlmIiBmb250LXNpemU9IjE0IiBsZW5ndGhBZGp1c3Q9InNwYWNpbmciIHRleHRMZW5ndGg9IjcwIiB4PSIxMDk5LjUiIHk9IjQ5MC44NzUiPlNRTCBTZXJ2ZXI8L3RleHQ+PHBhdGggZD0iTTExMTkuNSw1MDIuNjI1IEMxMTE5LjUsNDkyLjYyNSAxMTM3LjUsNDkyLjYyNSAxMTM3LjUsNDkyLjYyNSBDMTEzNy41LDQ5Mi42MjUgMTE1NS41LDQ5Mi42MjUgMTE1NS41LDUwMi42MjUgTDExNTUuNSw1MjguNjI1IEMxMTU1LjUsNTM4LjYyNSAxMTM3LjUsNTM4LjYyNSAxMTM3LjUsNTM4LjYyNSBDMTEzNy41LDUzOC42MjUgMTExOS41LDUzOC42MjUgMTExOS41LDUyOC42MjUgTDExMTkuNSw1MDIuNjI1IiBmaWxsPSIjRTJFMkYwIiBzdHlsZT0ic3Ryb2tlOiMxODE4MTg7c3Ryb2tlLXdpZHRoOjEuNTsiLz48cGF0aCBkPSJNMTExOS41LDUwMi42MjUgQzExMTkuNSw1MTIuNjI1IDExMzcuNSw1MTIuNjI1IDExMzcuNSw1MTIuNjI1IEMxMTM3LjUsNTEyLjYyNSAxMTU1LjUsNTEyLjYyNSAxMTU1LjUsNTAyLjYyNSIgZmlsbD0ibm9uZSIgc3R5bGU9InN0cm9rZTojMTgxODE4O3N0cm9rZS13aWR0aDoxLjU7Ii8+PC9nPjxnIGNsYXNzPSJwYXJ0aWNpcGFudCBwYXJ0aWNpcGFudC1oZWFkIiBkYXRhLXBhcnRpY2lwYW50PSJTbm93Zmxha2UiPjx0ZXh0IGZpbGw9IiMwMDAwMDAiIGZvbnQtZmFtaWx5PSJzYW5zLXNlcmlmIiBmb250LXNpemU9IjE0IiBsZW5ndGhBZGp1c3Q9InNwYWNpbmciIHRleHRMZW5ndGg9IjYzIiB4PSIxMTg1LjUiIHk9Ijc4LjIzNDQiPlNub3dmbGFrZTwvdGV4dD48cGF0aCBkPSJNMTIwMiwyOSBDMTIwMiwxOSAxMjIwLDE5IDEyMjAsMTkgQzEyMjAsMTkgMTIzOCwxOSAxMjM4LDI5IEwxMjM4LDU1IEMxMjM4LDY1IDEyMjAsNjUgMTIyMCw2NSBDMTIyMCw2NSAxMjAyLDY1IDEyMDIsNTUgTDEyMDIsMjkiIGZpbGw9IiNFMkUyRjAiIHN0eWxlPSJzdHJva2U6IzE4MTgxODtzdHJva2Utd2lkdGg6MS41OyIvPjxwYXRoIGQ9Ik0xMjAyLDI5IEMxMjAyLDM5IDEyMjAsMzkgMTIyMCwzOSBDMTIyMCwzOSAxMjM4LDM5IDEyMzgsMjkiIGZpbGw9Im5vbmUiIHN0eWxlPSJzdHJva2U6IzE4MTgxODtzdHJva2Utd2lkdGg6MS41OyIvPjwvZz48ZyBjbGFzcz0icGFydGljaXBhbnQgcGFydGljaXBhbnQtdGFpbCIgZGF0YS1wYXJ0aWNpcGFudD0iU25vd2ZsYWtlIj48dGV4dCBmaWxsPSIjMDAwMDAwIiBmb250LWZhbWlseT0ic2Fucy1zZXJpZiIgZm9udC1zaXplPSIxNCIgbGVuZ3RoQWRqdXN0PSJzcGFjaW5nIiB0ZXh0TGVuZ3RoPSI2MyIgeD0iMTE4NS41IiB5PSI0OTAuODc1Ij5Tbm93Zmxha2U8L3RleHQ+PHBhdGggZD0iTTEyMDIsNTAyLjYyNSBDMTIwMiw0OTIuNjI1IDEyMjAsNDkyLjYyNSAxMjIwLDQ5Mi42MjUgQzEyMjAsNDkyLjYyNSAxMjM4LDQ5Mi42MjUgMTIzOCw1MDIuNjI1IEwxMjM4LDUyOC42MjUgQzEyMzgsNTM4LjYyNSAxMjIwLDUzOC42MjUgMTIyMCw1MzguNjI1IEMxMjIwLDUzOC42MjUgMTIwMiw1MzguNjI1IDEyMDIsNTI4LjYyNSBMMTIwMiw1MDIuNjI1IiBmaWxsPSIjRTJFMkYwIiBzdHlsZT0ic3Ryb2tlOiMxODE4MTg7c3Ryb2tlLXdpZHRoOjEuNTsiLz48cGF0aCBkPSJNMTIwMiw1MDIuNjI1IEMxMjAyLDUxMi42MjUgMTIyMCw1MTIuNjI1IDEyMjAsNTEyLjYyNSBDMTIyMCw1MTIuNjI1IDEyMzgsNTEyLjYyNSAxMjM4LDUwMi42MjUiIGZpbGw9Im5vbmUiIHN0eWxlPSJzdHJva2U6IzE4MTgxODtzdHJva2Utd2lkdGg6MS41OyIvPjwvZz48ZyBjbGFzcz0ibWVzc2FnZSIgZGF0YS1wYXJ0aWNpcGFudC0xPSJEZXZpY2UiIGRhdGEtcGFydGljaXBhbnQtMj0iQVBJR1ciPjxwb2x5Z29uIGZpbGw9IiMxODE4MTgiIHBvaW50cz0iMjAzLjUsMTA1Ljg5ODQsMjEzLjUsMTA5Ljg5ODQsMjAzLjUsMTEzLjg5ODQsMjA3LjUsMTA5Ljg5ODQiIHN0eWxlPSJzdHJva2U6IzE4MTgxODtzdHJva2Utd2lkdGg6MTsiLz48bGluZSBzdHlsZT0ic3Ryb2tlOiMxODE4MTg7c3Ryb2tlLXdpZHRoOjE7IiB4MT0iMjkiIHgyPSIyMDkuNSIgeTE9IjEwOS44OTg0IiB5Mj0iMTA5Ljg5ODQiLz48dGV4dCBmaWxsPSIjMDAwMDAwIiBmb250LWZhbWlseT0ic2Fucy1zZXJpZiIgZm9udC1zaXplPSIxMyIgbGVuZ3RoQWRqdXN0PSJzcGFjaW5nIiB0ZXh0TGVuZ3RoPSIxNjIuNSIgeD0iMzYiIHk9IjEwNi4yNzM0Ij5TZW5kIEpTT04gcGF5bG9hZCAoZGFpbHkpPC90ZXh0PjwvZz48ZyBjbGFzcz0ibWVzc2FnZSIgZGF0YS1wYXJ0aWNpcGFudC0xPSJBUElHVyIgZGF0YS1wYXJ0aWNpcGFudC0yPSJJbmdlc3QiPjxwb2x5Z29uIGZpbGw9IiMxODE4MTgiIHBvaW50cz0iNDI5LDEzMy44MTI1LDQzOSwxMzcuODEyNSw0MjksMTQxLjgxMjUsNDMzLDEzNy44MTI1IiBzdHlsZT0ic3Ryb2tlOiMxODE4MTg7c3Ryb2tlLXdpZHRoOjE7Ii8+PGxpbmUgc3R5bGU9InN0cm9rZTojMTgxODE4O3N0cm9rZS13aWR0aDoxOyIgeDE9IjIxNS41IiB4Mj0iNDM1IiB5MT0iMTM3LjgxMjUiIHkyPSIxMzcuODEyNSIvPjx0ZXh0IGZpbGw9IiMwMDAwMDAiIGZvbnQtZmFtaWx5PSJzYW5zLXNlcmlmIiBmb250LXNpemU9IjEzIiBsZW5ndGhBZGp1c3Q9InNwYWNpbmciIHRleHRMZW5ndGg9IjIwMS41IiB4PSIyMjIuNSIgeT0iMTM0LjE4NzUiPkZvcndhcmQgcmVxdWVzdCAoSldUIHZhbGlkYXRlZCk8L3RleHQ+PC9nPjxwYXRoIGQ9Ik0xNjAsMTUyLjgxMjUgTDIyNC41LDE1Mi44MTI1IEwyMjQuNSwxNTguNzI2NiBMMjE0LjUsMTY4LjcyNjYgTDE2MCwxNjguNzI2NiBMMTYwLDE1Mi44MTI1IiBmaWxsPSIjRUVFRUVFIiBzdHlsZT0ic3Ryb2tlOiMwMDAwMDA7c3Ryb2tlLXdpZHRoOjEuNTsiLz48cmVjdCBmaWxsPSJub25lIiBoZWlnaHQ9IjMwOC44MjgxIiBzdHlsZT0ic3Ryb2tlOiMwMDAwMDA7c3Ryb2tlLXdpZHRoOjEuNTsiIHdpZHRoPSIxMTA0LjUiIHg9IjE2MCIgeT0iMTUyLjgxMjUiLz48dGV4dCBmaWxsPSIjMDAwMDAwIiBmb250LWZhbWlseT0ic2Fucy1zZXJpZiIgZm9udC1zaXplPSIxMyIgZm9udC13ZWlnaHQ9ImJvbGQiIGxlbmd0aEFkanVzdD0ic3BhY2luZyIgdGV4dExlbmd0aD0iMTkuNSIgeD0iMTc1IiB5PSIxNjYuMTAxNiI+YWx0PC90ZXh0Pjx0ZXh0IGZpbGw9IiMwMDAwMDAiIGZvbnQtZmFtaWx5PSJzYW5zLXNlcmlmIiBmb250LXNpemU9IjExIiBmb250LXdlaWdodD0iYm9sZCIgbGVuZ3RoQWRqdXN0PSJzcGFjaW5nIiB0ZXh0TGVuZ3RoPSIxMzIiIHg9IjIzOS41IiB5PSIxNjUuMjEwOSI+W0NhY2hlIE1JU1MgKG5ldyBldmVudCldPC90ZXh0PjxnIGNsYXNzPSJtZXNzYWdlIiBkYXRhLXBhcnRpY2lwYW50LTE9IkluZ2VzdCIgZGF0YS1wYXJ0aWNpcGFudC0yPSJSZWRpcyI+PHBvbHlnb24gZmlsbD0iIzE4MTgxOCIgcG9pbnRzPSI2ODAuNSwxODQuNjQwNiw2OTAuNSwxODguNjQwNiw2ODAuNSwxOTIuNjQwNiw2ODQuNSwxODguNjQwNiIgc3R5bGU9InN0cm9rZTojMTgxODE4O3N0cm9rZS13aWR0aDoxOyIvPjxsaW5lIHN0eWxlPSJzdHJva2U6IzE4MTgxODtzdHJva2Utd2lkdGg6MTsiIHgxPSI0NDEiIHgyPSI2ODYuNSIgeTE9IjE4OC42NDA2IiB5Mj0iMTg4LjY0MDYiLz48dGV4dCBmaWxsPSIjMDAwMDAwIiBmb250LWZhbWlseT0ic2Fucy1zZXJpZiIgZm9udC1zaXplPSIxMyIgbGVuZ3RoQWRqdXN0PSJzcGFjaW5nIiB0ZXh0TGVuZ3RoPSIyMjcuNSIgeD0iNDQ4IiB5PSIxODUuMDE1NiI+R0VUIGtleShkZXZpY2VJZCtldmVudElkK3RpbWVzdGFtcCk8L3RleHQ+PC9nPjxnIGNsYXNzPSJtZXNzYWdlIiBkYXRhLXBhcnRpY2lwYW50LTE9IlJlZGlzIiBkYXRhLXBhcnRpY2lwYW50LTI9IkluZ2VzdCI+PHBvbHlnb24gZmlsbD0iIzE4MTgxOCIgcG9pbnRzPSI0NTIsMjEyLjU1NDcsNDQyLDIxNi41NTQ3LDQ1MiwyMjAuNTU0Nyw0NDgsMjE2LjU1NDciIHN0eWxlPSJzdHJva2U6IzE4MTgxODtzdHJva2Utd2lkdGg6MTsiLz48bGluZSBzdHlsZT0ic3Ryb2tlOiMxODE4MTg7c3Ryb2tlLXdpZHRoOjE7c3Ryb2tlLWRhc2hhcnJheToyLjAsMi4wOyIgeDE9IjQ0NiIgeDI9IjY5MS41IiB5MT0iMjE2LjU1NDciIHkyPSIyMTYuNTU0NyIvPjx0ZXh0IGZpbGw9IiMwMDAwMDAiIGZvbnQtZmFtaWx5PSJzYW5zLXNlcmlmIiBmb250LXNpemU9IjEzIiBsZW5ndGhBZGp1c3Q9InNwYWNpbmciIHRleHRMZW5ndGg9IjI2IiB4PSI0NTgiIHk9IjIxMi45Mjk3Ij5NSVNTPC90ZXh0PjwvZz48ZyBjbGFzcz0ibWVzc2FnZSIgZGF0YS1wYXJ0aWNpcGFudC0xPSJJbmdlc3QiIGRhdGEtcGFydGljaXBhbnQtMj0iUmVkaXMiPjxwb2x5Z29uIGZpbGw9IiMxODE4MTgiIHBvaW50cz0iNjgwLjUsMjQwLjQ2ODgsNjkwLjUsMjQ0LjQ2ODgsNjgwLjUsMjQ4LjQ2ODgsNjg0LjUsMjQ0LjQ2ODgiIHN0eWxlPSJzdHJva2U6IzE4MTgxODtzdHJva2Utd2lkdGg6MTsiLz48bGluZSBzdHlsZT0ic3Ryb2tlOiMxODE4MTg7c3Ryb2tlLXdpZHRoOjE7IiB4MT0iNDQxIiB4Mj0iNjg2LjUiIHkxPSIyNDQuNDY4OCIgeTI9IjI0NC40Njg4Ii8+PHRleHQgZmlsbD0iIzAwMDAwMCIgZm9udC1mYW1pbHk9InNhbnMtc2VyaWYiIGZvbnQtc2l6ZT0iMTMiIGxlbmd0aEFkanVzdD0ic3BhY2luZyIgdGV4dExlbmd0aD0iMTM2LjUiIHg9IjQ0OCIgeT0iMjQwLjg0MzgiPlNFVCBrZXkoLi4uKSwgVFRMPTQ4aDwvdGV4dD48L2c+PGcgY2xhc3M9Im1lc3NhZ2UiIGRhdGEtcGFydGljaXBhbnQtMT0iSW5nZXN0IiBkYXRhLXBhcnRpY2lwYW50LTI9IkthZmthIj48cG9seWdvbiBmaWxsPSIjMTgxODE4IiBwb2ludHM9IjczOS41LDI2OC4zODI4LDc0OS41LDI3Mi4zODI4LDczOS41LDI3Ni4zODI4LDc0My41LDI3Mi4zODI4IiBzdHlsZT0ic3Ryb2tlOiMxODE4MTg7c3Ryb2tlLXdpZHRoOjE7Ii8+PGxpbmUgc3R5bGU9InN0cm9rZTojMTgxODE4O3N0cm9rZS13aWR0aDoxOyIgeDE9IjQ0MSIgeDI9Ijc0NS41IiB5MT0iMjcyLjM4MjgiIHkyPSIyNzIuMzgyOCIvPjx0ZXh0IGZpbGw9IiMwMDAwMDAiIGZvbnQtZmFtaWx5PSJzYW5zLXNlcmlmIiBmb250LXNpemU9IjEzIiBsZW5ndGhBZGp1c3Q9InNwYWNpbmciIHRleHRMZW5ndGg9IjEwNCIgeD0iNDQ4IiB5PSIyNjguNzU3OCI+UHVzaCB2YWxpZCBldmVudDwvdGV4dD48L2c+PGcgY2xhc3M9Im1lc3NhZ2UiIGRhdGEtcGFydGljaXBhbnQtMT0iRW5yaWNoIiBkYXRhLXBhcnRpY2lwYW50LTI9IkthZmthIj48cG9seWdvbiBmaWxsPSIjMTgxODE4IiBwb2ludHM9Ijc2Mi41LDI5Ni4yOTY5LDc1Mi41LDMwMC4yOTY5LDc2Mi41LDMwNC4yOTY5LDc1OC41LDMwMC4yOTY5IiBzdHlsZT0ic3Ryb2tlOiMxODE4MTg7c3Ryb2tlLXdpZHRoOjE7Ii8+PGxpbmUgc3R5bGU9InN0cm9rZTojMTgxODE4O3N0cm9rZS13aWR0aDoxOyIgeDE9Ijc1Ni41IiB4Mj0iODU5IiB5MT0iMzAwLjI5NjkiIHkyPSIzMDAuMjk2OSIvPjx0ZXh0IGZpbGw9IiMwMDAwMDAiIGZvbnQtZmFtaWx5PSJzYW5zLXNlcmlmIiBmb250LXNpemU9IjEzIiBsZW5ndGhBZGp1c3Q9InNwYWNpbmciIHRleHRMZW5ndGg9Ijg0LjUiIHg9Ijc2OC41IiB5PSIyOTYuNjcxOSI+Q29uc3VtZSBldmVudDwvdGV4dD48L2c+PGcgY2xhc3M9Im1lc3NhZ2UiIGRhdGEtcGFydGljaXBhbnQtMT0iRW5yaWNoIiBkYXRhLXBhcnRpY2lwYW50LTI9IlNRTCI+PHBvbHlnb24gZmlsbD0iIzE4MTgxOCIgcG9pbnRzPSIxMTI1LjUsMzI0LjIxMDksMTEzNS41LDMyOC4yMTA5LDExMjUuNSwzMzIuMjEwOSwxMTI5LjUsMzI4LjIxMDkiIHN0eWxlPSJzdHJva2U6IzE4MTgxODtzdHJva2Utd2lkdGg6MTsiLz48bGluZSBzdHlsZT0ic3Ryb2tlOiMxODE4MTg7c3Ryb2tlLXdpZHRoOjE7IiB4MT0iODYwIiB4Mj0iMTEzMS41IiB5MT0iMzI4LjIxMDkiIHkyPSIzMjguMjEwOSIvPjx0ZXh0IGZpbGw9IiMwMDAwMDAiIGZvbnQtZmFtaWx5PSJzYW5zLXNlcmlmIiBmb250LXNpemU9IjEzIiBsZW5ndGhBZGp1c3Q9InNwYWNpbmciIHRleHRMZW5ndGg9IjI1My41IiB4PSI4NjciIHk9IjMyNC41ODU5Ij5VcGRhdGUgcmVjZW50IHN0YXR1cywgZXJyb3JzLCBsYXN0LXNlZW48L3RleHQ+PC9nPjxnIGNsYXNzPSJtZXNzYWdlIiBkYXRhLXBhcnRpY2lwYW50LTE9IkVucmljaCIgZGF0YS1wYXJ0aWNpcGFudC0yPSJTbm93Zmxha2UiPjxwb2x5Z29uIGZpbGw9IiMxODE4MTgiIHBvaW50cz0iMTIwOCwzNTIuMTI1LDEyMTgsMzU2LjEyNSwxMjA4LDM2MC4xMjUsMTIxMiwzNTYuMTI1IiBzdHlsZT0ic3Ryb2tlOiMxODE4MTg7c3Ryb2tlLXdpZHRoOjE7Ii8+PGxpbmUgc3R5bGU9InN0cm9rZTojMTgxODE4O3N0cm9rZS13aWR0aDoxOyIgeDE9Ijg2MCIgeDI9IjEyMTQiIHkxPSIzNTYuMTI1IiB5Mj0iMzU2LjEyNSIvPjx0ZXh0IGZpbGw9IiMwMDAwMDAiIGZvbnQtZmFtaWx5PSJzYW5zLXNlcmlmIiBmb250LXNpemU9IjEzIiBsZW5ndGhBZGp1c3Q9InNwYWNpbmciIHRleHRMZW5ndGg9IjI0MC41IiB4PSI4NjciIHk9IjM1Mi41Ij5TdG9yZSBlbnJpY2hlZCBkYXRhIChmb3IgQkkvR3JhcGhhbmEpPC90ZXh0PjwvZz48bGluZSBzdHlsZT0ic3Ryb2tlOiMwMDAwMDA7c3Ryb2tlLXdpZHRoOjE7c3Ryb2tlLWRhc2hhcnJheToyLjAsMi4wOyIgeDE9IjE2MCIgeDI9IjEyNjQuNSIgeTE9IjM2NS4xMjUiIHkyPSIzNjUuMTI1Ii8+PHRleHQgZmlsbD0iIzAwMDAwMCIgZm9udC1mYW1pbHk9InNhbnMtc2VyaWYiIGZvbnQtc2l6ZT0iMTEiIGZvbnQtd2VpZ2h0PSJib2xkIiBsZW5ndGhBZGp1c3Q9InNwYWNpbmciIHRleHRMZW5ndGg9IjE1OS41IiB4PSIxNjUiIHk9IjM3NS41MjM0Ij5bQ2FjaGUgSElUIChkdXBsaWNhdGUgZXZlbnQpXTwvdGV4dD48ZyBjbGFzcz0ibWVzc2FnZSIgZGF0YS1wYXJ0aWNpcGFudC0xPSJJbmdlc3QiIGRhdGEtcGFydGljaXBhbnQtMj0iUmVkaXMiPjxwb2x5Z29uIGZpbGw9IiMxODE4MTgiIHBvaW50cz0iNjgwLjUsMzkzLjgxMjUsNjkwLjUsMzk3LjgxMjUsNjgwLjUsNDAxLjgxMjUsNjg0LjUsMzk3LjgxMjUiIHN0eWxlPSJzdHJva2U6IzE4MTgxODtzdHJva2Utd2lkdGg6MTsiLz48bGluZSBzdHlsZT0ic3Ryb2tlOiMxODE4MTg7c3Ryb2tlLXdpZHRoOjE7IiB4MT0iNDQxIiB4Mj0iNjg2LjUiIHkxPSIzOTcuODEyNSIgeTI9IjM5Ny44MTI1Ii8+PHRleHQgZmlsbD0iIzAwMDAwMCIgZm9udC1mYW1pbHk9InNhbnMtc2VyaWYiIGZvbnQtc2l6ZT0iMTMiIGxlbmd0aEFkanVzdD0ic3BhY2luZyIgdGV4dExlbmd0aD0iMjI3LjUiIHg9IjQ0OCIgeT0iMzk0LjE4NzUiPkdFVCBrZXkoZGV2aWNlSWQrZXZlbnRJZCt0aW1lc3RhbXApPC90ZXh0PjwvZz48ZyBjbGFzcz0ibWVzc2FnZSIgZGF0YS1wYXJ0aWNpcGFudC0xPSJSZWRpcyIgZGF0YS1wYXJ0aWNpcGFudC0yPSJJbmdlc3QiPjxwb2x5Z29uIGZpbGw9IiMxODE4MTgiIHBvaW50cz0iNDUyLDQyMS43MjY2LDQ0Miw0MjUuNzI2Niw0NTIsNDI5LjcyNjYsNDQ4LDQyNS43MjY2IiBzdHlsZT0ic3Ryb2tlOiMxODE4MTg7c3Ryb2tlLXdpZHRoOjE7Ii8+PGxpbmUgc3R5bGU9InN0cm9rZTojMTgxODE4O3N0cm9rZS13aWR0aDoxO3N0cm9rZS1kYXNoYXJyYXk6Mi4wLDIuMDsiIHgxPSI0NDYiIHgyPSI2OTEuNSIgeTE9IjQyNS43MjY2IiB5Mj0iNDI1LjcyNjYiLz48dGV4dCBmaWxsPSIjMDAwMDAwIiBmb250LWZhbWlseT0ic2Fucy1zZXJpZiIgZm9udC1zaXplPSIxMyIgbGVuZ3RoQWRqdXN0PSJzcGFjaW5nIiB0ZXh0TGVuZ3RoPSIxOS41IiB4PSI0NTgiIHk9IjQyMi4xMDE2Ij5ISVQ8L3RleHQ+PC9nPjxnIGNsYXNzPSJtZXNzYWdlIiBkYXRhLXBhcnRpY2lwYW50LTE9IkluZ2VzdCIgZGF0YS1wYXJ0aWNpcGFudC0yPSJBUElHVyI+PHBvbHlnb24gZmlsbD0iIzE4MTgxOCIgcG9pbnRzPSIyMjYuNSw0NDkuNjQwNiwyMTYuNSw0NTMuNjQwNiwyMjYuNSw0NTcuNjQwNiwyMjIuNSw0NTMuNjQwNiIgc3R5bGU9InN0cm9rZTojMTgxODE4O3N0cm9rZS13aWR0aDoxOyIvPjxsaW5lIHN0eWxlPSJzdHJva2U6IzE4MTgxODtzdHJva2Utd2lkdGg6MTtzdHJva2UtZGFzaGFycmF5OjIuMCwyLjA7IiB4MT0iMjIwLjUiIHgyPSI0NDAiIHkxPSI0NTMuNjQwNiIgeTI9IjQ1My42NDA2Ii8+PHRleHQgZmlsbD0iIzAwMDAwMCIgZm9udC1mYW1pbHk9InNhbnMtc2VyaWYiIGZvbnQtc2l6ZT0iMTMiIGxlbmd0aEFkanVzdD0ic3BhY2luZyIgdGV4dExlbmd0aD0iMTY5IiB4PSIyMzIuNSIgeT0iNDUwLjAxNTYiPjIwMCBPSyAoZHVwbGljYXRlIGlnbm9yZWQpPC90ZXh0PjwvZz48IS0tU1JDPVtoTEIxUmppbTNCdGhBdVlTUkFuOVlzNjdtSzA3ajZjTUVVdE1SbFFHQ3NpbmpIMTd6WUd2R1Z2LWI5SHNUZjdaSmZCOGZ5VjdIc0JiTVdEdGo1U0xZR3dES3ZOZ0sza090M3BiaTRINzFwbkUwMnRtVXhhVUd0QnpHalFmTGFEMW5aQzRPOG9FYVJ6OEFaaVBuLXZuaXlMdGlPS3NnZ2Z0bkZUclF4UGEwY0VDMmVhRWR6NElKOGdWM3c3YUFTX0ZPTEF0WHFzM3N3WmN4SUw0eDFBY05zOGw2TERlMlFsWXlHVHFVNm5RYjkxOExDcW41RzdXYVI2UDNCd3N2ZTE2V2c0X0ZHU1dNUXJCczZFWmsyeDlMMFhpN0NvbmdXYy12cUsxWVFPM3E5dVJJR01TTTNuVkMyQTN2UUE0QkhxSjZJSmJ5YUUweWtkS1pmNnV3X290MDhSZkc4UmRGaVROZEZYY2lyYncwTU52U0Z0ZlNwcTIxaFNwVUVmajdOTDdUT285eFd1bXlyUlJWYVRkMDZucTFoeXh0cEN4S1ZhbmlMWk5zbWlXT3JoM1B1Rk1KSXNIN2R6eWRHOUJ2T0xaeGYwWTJOdmthNm51Mk1fcG93TjFoYVFEZ1EyNkhuZHpfOVFORjlVLVFySmJ3X3ZfS3hkMFdFeFZVZG95a2VCNy1zNWp6UTlQRjgtUjUtU2xdLS0+PC9nPjwvc3ZnPg==;" vertex="1" parent="1">
            <mxGeometry x="-290" y="940" width="1271" height="558" as="geometry" />
          </mxCell>
        </UserObject>
      </root>
    </mxGraphModel>
  </diagram>
</mxfile>
